<?xml version="1.0" encoding="UTF-8"?>
<!DOCTYPE svg PUBLIC "-//W3C//DTD SVG 1.1//EN" "http://www.w3.org/Graphics/SVG/1.1/DTD/svg11.dtd">
<svg xmlns="http://www.w3.org/2000/svg" version="1.1" width="512px" height="512px" style="shape-rendering:geometricPrecision; text-rendering:geometricPrecision; image-rendering:optimizeQuality; fill-rule:evenodd; clip-rule:evenodd" xmlns:xlink="http://www.w3.org/1999/xlink">
<g><path style="opacity:0.992" fill="#edbb41" d="M 312.5,131.5 C 316.702,139.595 320.035,148.095 322.5,157C 322.357,159.151 321.357,160.818 319.5,162C 316.524,162.705 313.858,163.871 311.5,165.5C 282.603,176.449 253.603,187.116 224.5,197.5C 229.275,189.52 228.275,182.354 221.5,176C 211.454,171.804 204.288,174.638 200,184.5C 198.948,190.046 200.448,194.712 204.5,198.5C 203.957,201.218 203.291,203.885 202.5,206.5C 175.09,216.303 147.757,226.303 120.5,236.5C 113.09,238.692 105.757,241.192 98.5,244C 96.8333,244.667 95.1667,244.667 93.5,244C 89.028,235.256 86.1947,226.09 85,216.5C 86.5833,215.029 88.4166,214.029 90.5,213.5C 160.022,187.38 229.689,161.547 299.5,136C 229.146,157.505 158.812,179.339 88.5,201.5C 86.7321,191.084 84.0654,181.084 80.5,171.5C 75.9864,150.111 71.1531,128.778 66,107.5C 64.9241,102.928 65.7575,98.7611 68.5,95C 125.167,73.6667 181.833,52.3333 238.5,31C 244.076,29.5284 248.909,30.6951 253,34.5C 270.078,67.6578 287.412,100.658 305,133.5C 307.301,132.133 309.801,131.466 312.5,131.5 Z"/></g>
<g><path style="opacity:1" fill="#2f1a29" d="M 226.5,53.5 C 229.649,53.2114 232.649,53.7114 235.5,55C 245.251,78.5815 254.417,102.415 263,126.5C 265.288,135.152 262.121,138.985 253.5,138C 252.333,136.833 251.167,135.667 250,134.5C 241.333,111.167 232.667,87.8333 224,64.5C 222.812,60.2586 223.645,56.5919 226.5,53.5 Z"/></g>
<g><path style="opacity:1" fill="#2f1b29" d="M 193.5,65.5 C 198.421,65.0429 201.921,67.0429 204,71.5C 212.667,94.8333 221.333,118.167 230,141.5C 230.559,145.553 229.059,148.72 225.5,151C 222.15,151.93 219.317,151.097 217,148.5C 207.803,124.578 198.803,100.578 190,76.5C 188.662,71.9597 189.829,68.293 193.5,65.5 Z"/></g>
<g><path style="opacity:1" fill="#2f1b29" d="M 159.5,78.5 C 162.32,78.2475 164.986,78.7475 167.5,80C 177.388,104.326 186.888,128.826 196,153.5C 196.622,161.211 193.122,164.378 185.5,163C 184.333,161.833 183.167,160.667 182,159.5C 173.333,136.167 164.667,112.833 156,89.5C 154.663,84.8721 155.83,81.2054 159.5,78.5 Z"/></g>
<g><path style="opacity:0.934" fill="#2c1828" d="M 368.5,90.5 C 390.471,89.9521 396.971,99.6187 388,119.5C 383.667,124.833 379.333,130.167 375,135.5C 373.272,138.639 372.106,141.972 371.5,145.5C 363.858,147.355 361.024,144.355 363,136.5C 367.909,128.921 373.575,121.921 380,115.5C 383.724,109.252 383.224,103.419 378.5,98C 372.911,95.2217 368.411,96.3883 365,101.5C 364.044,105.342 363.21,109.175 362.5,113C 356.875,114.548 353.875,112.381 353.5,106.5C 355.102,97.8998 360.102,92.5665 368.5,90.5 Z"/></g>
<g><path style="opacity:1" fill="#2f1b29" d="M 124.5,91.5 C 131.413,89.9175 135.58,92.5842 137,99.5C 145.333,121.833 153.667,144.167 162,166.5C 162.671,174.159 159.171,177.326 151.5,176C 149.383,174.269 147.883,172.102 147,169.5C 138.667,146.833 130.333,124.167 122,101.5C 120.861,97.5789 121.695,94.2456 124.5,91.5 Z"/></g>
<g><path style="opacity:1" fill="#2f1b29" d="M 91.5,103.5 C 98.5586,103.718 102.725,107.384 104,114.5C 111.803,136.244 119.803,157.91 128,179.5C 128.305,187.46 124.472,190.293 116.5,188C 106.23,163.865 96.7296,139.365 88,114.5C 86.6624,109.96 87.8291,106.293 91.5,103.5 Z"/></g>
<g><path style="opacity:0.991" fill="#e29b75" d="M 414.5,354.5 C 400.5,341.167 386.833,327.5 373.5,313.5C 379.237,305.703 384.737,297.703 390,289.5C 390.667,288.5 390.667,287.5 390,286.5C 368.58,254.66 346.914,222.993 325,191.5C 322,187.167 318.333,183.5 314,180.5C 311.765,175.777 310.931,170.777 311.5,165.5C 313.858,163.871 316.524,162.705 319.5,162C 321.357,160.818 322.357,159.151 322.5,157C 320.035,148.095 316.702,139.595 312.5,131.5C 305.403,108.154 309.903,105.487 326,123.5C 336.851,134.861 344.351,148.194 348.5,163.5C 385.18,193.952 416.013,229.286 441,269.5C 448.79,289.749 446.456,308.749 434,326.5C 428.027,336.289 421.527,345.622 414.5,354.5 Z"/></g>
<g><path style="opacity:1" fill="#d8991c" d="M 90.5,213.5 C 89.4066,209.606 88.7399,205.606 88.5,201.5C 158.812,179.339 229.146,157.505 299.5,136C 229.689,161.547 160.022,187.38 90.5,213.5 Z"/></g>
<g><path style="opacity:0.863" fill="#2c1827" d="M 364.5,147.5 C 371.325,146.165 373.825,148.831 372,155.5C 368.592,159.483 365.592,159.15 363,154.5C 362.167,151.829 362.667,149.496 364.5,147.5 Z"/></g>
<g><path style="opacity:0.991" fill="#e29b75" d="M 80.5,171.5 C 84.0654,181.084 86.7321,191.084 88.5,201.5C 88.7399,205.606 89.4066,209.606 90.5,213.5C 88.4166,214.029 86.5833,215.029 85,216.5C 86.1947,226.09 89.028,235.256 93.5,244C 95.1667,244.667 96.8333,244.667 98.5,244C 105.757,241.192 113.09,238.692 120.5,236.5C 123.409,272.152 126.242,307.819 129,343.5C 129.93,345.552 131.43,347.052 133.5,348C 139.86,351.18 146.193,354.347 152.5,357.5C 141.191,374.798 129.524,391.798 117.5,408.5C 103.071,400.356 91.2376,389.356 82,375.5C 76.5975,366.058 73.7642,355.891 73.5,345C 77.1747,308.248 81.1747,271.581 85.5,235C 78.5319,224.065 73.1986,212.398 69.5,200C 71.5029,189.819 75.1696,180.319 80.5,171.5 Z"/></g>
<g><path style="opacity:0.997" fill="#e64045" d="M 224.5,197.5 C 223.473,199.194 222.139,200.527 220.5,201.5C 214.561,203.463 209.227,202.463 204.5,198.5C 200.448,194.712 198.948,190.046 200,184.5C 204.288,174.638 211.454,171.804 221.5,176C 228.275,182.354 229.275,189.52 224.5,197.5 Z"/></g>
<g><path style="opacity:0.964" fill="#cc3745" d="M 204.5,198.5 C 209.227,202.463 214.561,203.463 220.5,201.5C 217.715,220.161 214.882,238.827 212,257.5C 207.852,264.621 202.852,265.288 197,259.5C 196.077,257.966 195.577,256.299 195.5,254.5C 198.021,238.518 200.355,222.518 202.5,206.5C 203.291,203.885 203.957,201.218 204.5,198.5 Z"/></g>
<g><path style="opacity:0.986" fill="#41c1d5" d="M 292.5,345.5 C 296.569,340.372 300.402,335.039 304,329.5C 307.883,334.009 312.716,335.509 318.5,334C 331.492,329.188 335.659,320.354 331,307.5C 327.901,304.188 324.067,302.521 319.5,302.5C 320.061,299.538 321.061,296.705 322.5,294C 315.296,284.276 313.629,273.609 317.5,262C 317.646,259.966 316.98,258.299 315.5,257C 306.056,253.972 296.722,250.639 287.5,247C 282.494,243.654 279.494,238.987 278.5,233C 272.109,232.242 265.776,232.576 259.5,234C 253.596,236.775 248.263,240.275 243.5,244.5C 241.698,227.815 249.031,218.315 265.5,216C 270.163,204.008 278.83,198.675 291.5,200C 292.5,203.667 294.833,206 298.5,207C 304.617,208.289 310.617,209.956 316.5,212C 337.895,225.741 352.061,244.908 359,269.5C 361.833,281.651 358.999,292.151 350.5,301C 351.162,313.676 346.162,323.676 335.5,331C 322.356,339.326 308.023,344.159 292.5,345.5 Z"/></g>
<g><path style="opacity:0.997" fill="#e19b75" d="M 292.5,345.5 C 291.26,354.85 289.926,364.183 288.5,373.5C 286.658,395.925 275.325,402.758 254.5,394C 249.822,389.811 246.822,384.644 245.5,378.5C 246.407,370.82 247.407,363.153 248.5,355.5C 238.456,355.49 229.122,352.99 220.5,348C 213.538,340.447 210.538,331.447 211.5,321C 211.552,309.199 213.385,297.699 217,286.5C 226.094,272.641 234.927,258.641 243.5,244.5C 248.263,240.275 253.596,236.775 259.5,234C 265.776,232.576 272.109,232.242 278.5,233C 279.494,238.987 282.494,243.654 287.5,247C 296.722,250.639 306.056,253.972 315.5,257C 316.98,258.299 317.646,259.966 317.5,262C 313.629,273.609 315.296,284.276 322.5,294C 321.061,296.705 320.061,299.538 319.5,302.5C 324.067,302.521 327.901,304.188 331,307.5C 335.659,320.354 331.492,329.188 318.5,334C 312.716,335.509 307.883,334.009 304,329.5C 300.402,335.039 296.569,340.372 292.5,345.5 Z"/></g>
<g><path style="opacity:1" fill="#422832" d="M 245.5,251.5 C 248.577,253.368 251.91,254.701 255.5,255.5C 258.51,254.652 261.51,254.152 264.5,254C 259.896,257.6 254.896,258.267 249.5,256C 247.365,255.124 246.031,253.624 245.5,251.5 Z"/></g>
<g><path style="opacity:1" fill="#311c2b" d="M 241.5,268.5 C 245.24,267.741 246.907,269.241 246.5,273C 246.143,278.712 243.309,280.879 238,279.5C 236.662,274.96 237.829,271.293 241.5,268.5 Z"/></g>
<g><path style="opacity:1" fill="#3f2631" d="M 278.5,270.5 C 286.83,269.665 292.83,272.998 296.5,280.5C 296.167,280.833 295.833,281.167 295.5,281.5C 293.728,278.44 291.395,275.94 288.5,274C 284.726,273.432 281.393,272.265 278.5,270.5 Z"/></g>
<g><path style="opacity:1" fill="#341e2c" d="M 273.5,287.5 C 276.864,286.873 278.864,288.206 279.5,291.5C 278.864,297.668 275.697,300.002 270,298.5C 268.882,294.077 270.049,290.41 273.5,287.5 Z"/></g>
<g><path style="opacity:1" fill="#7f544c" d="M 247.5,289.5 C 249.705,289.846 249.872,290.513 248,291.5C 245.67,293.043 243.17,293.543 240.5,293C 242.925,291.787 245.259,290.621 247.5,289.5 Z"/></g>
<g><path style="opacity:1" fill="#5f3c3e" d="M 318.5,308.5 C 326.794,307.609 329.627,310.942 327,318.5C 328.276,315.112 327.443,312.279 324.5,310C 321.8,309.747 319.133,309.747 316.5,310C 317.416,309.722 318.082,309.222 318.5,308.5 Z"/></g>
<g><path style="opacity:1" fill="#654141" d="M 246.5,313.5 C 251.06,312.658 254.727,313.991 257.5,317.5C 256.426,318.08 255.426,317.58 254.5,316C 249.361,313.494 245.194,314.661 242,319.5C 242.46,316.854 243.96,314.854 246.5,313.5 Z"/></g>
<g><path style="opacity:0.997" fill="#287dee" d="M 373.5,313.5 C 386.833,327.5 400.5,341.167 414.5,354.5C 397.325,380.855 379.659,406.855 361.5,432.5C 355.925,419.259 351.091,405.593 347,391.5C 345.701,388.245 344.035,385.245 342,382.5C 341.86,405.169 341.86,427.835 342,450.5C 338.917,455.588 335.083,460.088 330.5,464C 322.262,469.756 313.928,475.256 305.5,480.5C 285.5,480.5 265.5,480.5 245.5,480.5C 232.862,476.664 220.195,472.497 207.5,468C 205.91,466.954 204.41,465.787 203,464.5C 201.151,444.886 199.984,425.219 199.5,405.5C 198.194,406.912 197.36,408.579 197,410.5C 193.324,425.074 190.157,439.741 187.5,454.5C 164.13,439.153 140.797,423.82 117.5,408.5C 129.524,391.798 141.191,374.798 152.5,357.5C 183.411,364.882 214.411,371.882 245.5,378.5C 246.822,384.644 249.822,389.811 254.5,394C 275.325,402.758 286.658,395.925 288.5,373.5C 316.833,353.5 345.167,333.5 373.5,313.5 Z"/></g>
<g><path style="opacity:1" fill="#6c4644" d="M 312.5,314.5 C 316.432,316.91 316.432,319.41 312.5,322C 305.924,322.466 305.924,321.966 312.5,320.5C 313.519,318.54 313.519,316.54 312.5,314.5 Z"/></g>
<g><path style="opacity:1" fill="#1573d8" d="M 361.5,432.5 C 361.5,448.5 361.5,464.5 361.5,480.5C 342.833,480.5 324.167,480.5 305.5,480.5C 313.928,475.256 322.262,469.756 330.5,464C 335.083,460.088 338.917,455.588 342,450.5C 341.86,427.835 341.86,405.169 342,382.5C 344.035,385.245 345.701,388.245 347,391.5C 351.091,405.593 355.925,419.259 361.5,432.5 Z"/></g>
<g><path style="opacity:1" fill="#1573d8" d="M 245.5,480.5 C 226.167,480.5 206.833,480.5 187.5,480.5C 187.5,471.833 187.5,463.167 187.5,454.5C 190.157,439.741 193.324,425.074 197,410.5C 197.36,408.579 198.194,406.912 199.5,405.5C 199.984,425.219 201.151,444.886 203,464.5C 204.41,465.787 205.91,466.954 207.5,468C 220.195,472.497 232.862,476.664 245.5,480.5 Z"/></g>
</svg>
