<?xml version="1.0" encoding="UTF-8"?>
<!DOCTYPE svg PUBLIC "-//W3C//DTD SVG 1.1//EN" "http://www.w3.org/Graphics/SVG/1.1/DTD/svg11.dtd">
<svg xmlns="http://www.w3.org/2000/svg" version="1.1" width="260px" height="265px" style="shape-rendering:geometricPrecision; text-rendering:geometricPrecision; image-rendering:optimizeQuality; fill-rule:evenodd; clip-rule:evenodd" xmlns:xlink="http://www.w3.org/1999/xlink">
<g><path style="opacity:0.996" fill="#ebb499" d="M 71.5,67.5 C 79.376,65.2346 86.0426,67.2346 91.5,73.5C 88.7958,72.368 86.1292,71.0347 83.5,69.5C 82.8333,69.6667 82.1667,69.8333 81.5,70C 82.3805,70.7083 83.0472,71.5416 83.5,72.5C 80.9327,72.2785 78.5994,71.6118 76.5,70.5C 77.9778,70.762 79.3112,70.4287 80.5,69.5C 80.2907,68.914 79.9574,68.414 79.5,68C 76.854,67.5026 74.1873,67.3359 71.5,67.5 Z"/></g>
<g><path style="opacity:1" fill="#cd7048" d="M 71.5,67.5 C 74.1873,67.3359 76.854,67.5026 79.5,68C 79.9574,68.414 80.2907,68.914 80.5,69.5C 79.3112,70.4287 77.9778,70.762 76.5,70.5C 74.32,69.2056 72.32,69.5389 70.5,71.5C 69.1266,71.6567 67.7932,71.49 66.5,71C 68.2331,69.8111 69.8998,68.6444 71.5,67.5 Z"/></g>
<g><path style="opacity:0.008" fill="#f9d7cb" d="M 76.5,70.5 C 74.5648,71.1495 72.5648,71.4828 70.5,71.5C 72.32,69.5389 74.32,69.2056 76.5,70.5 Z"/></g>
<g><path style="opacity:0.82" fill="#e8bea8" d="M 85.5,73.5 C 87.8333,73.8333 89.1667,75.1667 89.5,77.5C 87.8333,76.5 86.5,75.1667 85.5,73.5 Z"/></g>
<g><path style="opacity:1" fill="#dc9575" d="M 71.5,67.5 C 69.8998,68.6444 68.2331,69.8111 66.5,71C 67.7932,71.49 69.1266,71.6567 70.5,71.5C 66.1667,73.8333 62.8333,77.1667 60.5,81.5C 60.1667,81.5 59.8333,81.5 59.5,81.5C 59.5,80.1667 58.8333,79.5 57.5,79.5C 59.4072,72.2582 64.0739,68.2582 71.5,67.5 Z"/></g>
<g><path style="opacity:0.975" fill="#e3ab94" d="M 91.5,73.5 C 93.1733,74.343 94.34,75.6763 95,77.5C 96.2299,85.7986 97.0632,94.132 97.5,102.5C 96.3366,92.8543 94.3366,83.1877 91.5,73.5 Z"/></g>
<g><path style="opacity:0.98" fill="#cd7653" d="M 57.5,79.5 C 58.8333,79.5 59.5,80.1667 59.5,81.5C 59.5,84.1667 59.5,86.8333 59.5,89.5C 58.5,89.5 57.5,89.5 56.5,89.5C 56.6159,86.1401 56.9492,82.8067 57.5,79.5 Z"/></g>
<g><path style="opacity:0.011" fill="#faf4f2" d="M 59.5,81.5 C 59.8333,81.5 60.1667,81.5 60.5,81.5C 60.5,83.8333 60.5,86.1667 60.5,88.5C 62.099,88.2322 63.4324,88.5655 64.5,89.5C 62.8333,89.5 61.1667,89.5 59.5,89.5C 59.5,86.8333 59.5,84.1667 59.5,81.5 Z"/></g>
<g><path style="opacity:0.69" fill="#abb8d2" d="M 53.5,88.5 C 48.5,88.5 43.5,88.5 38.5,88.5C 39.1342,87.0532 40.3009,86.3866 42,86.5C 46.005,86.9919 49.8384,87.6586 53.5,88.5 Z"/></g>
<g><path style="opacity:1" fill="#66769a" d="M 38.5,88.5 C 43.5,88.5 48.5,88.5 53.5,88.5C 53.8333,88.5 54.1667,88.5 54.5,88.5C 55.1667,88.5 55.5,88.8333 55.5,89.5C 51.6494,88.9709 48.1494,89.6375 45,91.5C 44.6667,91.1667 44.3333,90.8333 44,90.5C 43.7216,91.4158 43.2216,92.0825 42.5,92.5C 42.6716,91.5084 42.3382,90.8417 41.5,90.5C 41.19,89.2617 40.69,89.2617 40,90.5C 37.479,105.626 34.979,120.626 32.5,135.5C 32.8693,133.007 32.2027,132.34 30.5,133.5C 32.4384,118.231 35.1051,103.231 38.5,88.5 Z"/></g>
<g><path style="opacity:1" fill="#d39c8d" d="M 57.5,79.5 C 56.9492,82.8067 56.6159,86.1401 56.5,89.5C 57.5,89.5 58.5,89.5 59.5,89.5C 59.5,90.5 59.5,91.5 59.5,92.5C 59.5,93.1667 59.8333,93.5 60.5,93.5C 59.6993,95.0418 59.366,96.7085 59.5,98.5C 58.8365,96.9581 58.1698,95.2914 57.5,93.5C 56.8313,95.6309 56.1646,97.6309 55.5,99.5C 55.6747,97.3792 55.3414,95.3792 54.5,93.5C 55.4345,92.4324 55.7678,91.099 55.5,89.5C 55.5,88.8333 55.1667,88.5 54.5,88.5C 55.1309,85.2984 56.1309,82.2984 57.5,79.5 Z"/></g>
<g><path style="opacity:1" fill="#485787" d="M 59.5,89.5 C 61.1667,89.5 62.8333,89.5 64.5,89.5C 67.9387,89.2529 71.272,89.5863 74.5,90.5C 78.6472,91.3247 82.9805,91.8247 87.5,92C 78.1726,92.4998 68.8393,92.6665 59.5,92.5C 59.5,91.5 59.5,90.5 59.5,89.5 Z"/></g>
<g><path style="opacity:0.525" fill="#9ca9ca" d="M 74.5,90.5 C 80.5362,90.3599 86.5362,90.6932 92.5,91.5C 92.5,92.1667 92.5,92.8333 92.5,93.5C 81.8333,93.5 71.1667,93.5 60.5,93.5C 59.8333,93.5 59.5,93.1667 59.5,92.5C 68.8393,92.6665 78.1726,92.4998 87.5,92C 82.9805,91.8247 78.6472,91.3247 74.5,90.5 Z"/></g>
<g><path style="opacity:1" fill="#cf6f47" d="M 91.5,73.5 C 94.3366,83.1877 96.3366,92.8543 97.5,102.5C 97.5,104.5 97.5,106.5 97.5,108.5C 97.1667,108.5 96.8333,108.5 96.5,108.5C 95.1779,108.67 94.0113,108.337 93,107.5C 93.4285,99.8574 93.4285,92.1908 93,84.5C 93.0418,81.3994 91.8751,79.0661 89.5,77.5C 89.1667,75.1667 87.8333,73.8333 85.5,73.5C 84.5084,73.6716 83.8417,73.3382 83.5,72.5C 83.0472,71.5416 82.3805,70.7083 81.5,70C 82.1667,69.8333 82.8333,69.6667 83.5,69.5C 86.1292,71.0347 88.7958,72.368 91.5,73.5 Z"/></g>
<g><path style="opacity:0.855" fill="#e1a993" d="M 126.5,104.5 C 125.504,104.586 124.671,104.252 124,103.5C 123.616,105.197 123.782,106.863 124.5,108.5C 123.115,107.426 121.949,106.093 121,104.5C 120.333,103.833 120.333,103.167 121,102.5C 123.811,100.82 125.644,101.487 126.5,104.5 Z"/></g>
<g><path style="opacity:1" fill="#dca189" d="M 55.5,99.5 C 55.5,102.167 55.5,104.833 55.5,107.5C 56.8333,107.5 58.1667,107.5 59.5,107.5C 59.5,105.167 59.5,102.833 59.5,100.5C 62.6522,104.208 62.1522,107.208 58,109.5C 55.3991,109.399 53.8991,108.065 53.5,105.5C 53.8783,103.283 54.545,101.283 55.5,99.5 Z"/></g>
<g><path style="opacity:0.4" fill="#f5c7b1" d="M 196.5,104.5 C 195.25,104.577 194.417,105.244 194,106.5C 193.501,111.489 193.334,116.489 193.5,121.5C 194.5,121.5 195.5,121.5 196.5,121.5C 196.18,118.102 196.513,114.768 197.5,111.5C 198.522,111.855 199.189,112.522 199.5,113.5C 197.612,115.988 196.945,118.988 197.5,122.5C 195.833,122.5 194.167,122.5 192.5,122.5C 191.71,115.529 191.377,108.529 191.5,101.5C 193.933,101.273 195.599,102.273 196.5,104.5 Z"/></g>
<g><path style="opacity:1" fill="#d46c41" d="M 59.5,98.5 C 59.5,99.1667 59.5,99.8333 59.5,100.5C 59.5,102.833 59.5,105.167 59.5,107.5C 58.1667,107.5 56.8333,107.5 55.5,107.5C 55.5,104.833 55.5,102.167 55.5,99.5C 56.1646,97.6309 56.8313,95.6309 57.5,93.5C 58.1698,95.2914 58.8365,96.9581 59.5,98.5 Z"/></g>
<g><path style="opacity:1" fill="#dfb096" d="M 97.5,102.5 C 100.167,104.5 100.167,106.5 97.5,108.5C 97.5,106.5 97.5,104.5 97.5,102.5 Z"/></g>
<g><path style="opacity:0.91" fill="#eabca8" d="M 89.5,77.5 C 91.8751,79.0661 93.0418,81.3994 93,84.5C 93.4285,92.1908 93.4285,99.8574 93,107.5C 94.0113,108.337 95.1779,108.67 96.5,108.5C 93.9551,110.023 91.9551,109.357 90.5,106.5C 91.9114,102.287 92.5781,97.954 92.5,93.5C 92.5,92.8333 92.5,92.1667 92.5,91.5C 92.2627,86.6449 91.2627,81.9782 89.5,77.5 Z"/></g>
<g><path style="opacity:0.118" fill="#f8d7c5" d="M 137.5,102.5 C 137.48,105.838 135.98,108.838 133,111.5C 132.797,115.421 132.297,119.255 131.5,123C 130.101,123.595 128.768,123.428 127.5,122.5C 126.861,118.037 125.861,113.703 124.5,109.5C 125.75,109.577 126.583,110.244 127,111.5C 127.498,114.817 127.665,118.15 127.5,121.5C 128.5,121.5 129.5,121.5 130.5,121.5C 130.335,118.15 130.502,114.817 131,111.5C 133.385,108.621 135.552,105.621 137.5,102.5 Z"/></g>
<g><path style="opacity:1" fill="#d96e41" d="M 196.5,104.5 C 197.833,105.167 198.833,106.167 199.5,107.5C 199.787,110.484 201.454,111.817 204.5,111.5C 204.5,112.5 204.5,113.5 204.5,114.5C 202.784,114.371 201.117,114.038 199.5,113.5C 199.189,112.522 198.522,111.855 197.5,111.5C 196.513,114.768 196.18,118.102 196.5,121.5C 195.5,121.5 194.5,121.5 193.5,121.5C 193.334,116.489 193.501,111.489 194,106.5C 194.417,105.244 195.25,104.577 196.5,104.5 Z"/></g>
<g><path style="opacity:1" fill="#da6b3b" d="M 208.5,111.5 C 207.5,110.833 206.5,110.167 205.5,109.5C 207.127,107.37 208.96,105.37 211,103.5C 211.83,109.196 211.663,114.863 210.5,120.5C 209.647,117.522 208.981,114.522 208.5,111.5 Z"/></g>
<g><path style="opacity:0.965" fill="#dfb69c" d="M 227.5,110.5 C 224.236,109.676 220.902,109.342 217.5,109.5C 218.312,108.007 219.645,107.34 221.5,107.5C 224.102,107.467 226.102,108.467 227.5,110.5 Z"/></g>
<g><path style="opacity:0.678" fill="#7d94c0" d="M 86.5,111.5 C 80.1308,110.493 73.7975,110.493 67.5,111.5C 67.6107,110.883 67.944,110.383 68.5,110C 74.7545,109.108 80.7545,109.608 86.5,111.5 Z"/></g>
<g><path style="opacity:1" fill="#d67044" d="M 137.5,102.5 C 135.552,105.621 133.385,108.621 131,111.5C 130.502,114.817 130.335,118.15 130.5,121.5C 129.5,121.5 128.5,121.5 127.5,121.5C 127.665,118.15 127.498,114.817 127,111.5C 126.583,110.244 125.75,109.577 124.5,109.5C 124.5,109.167 124.5,108.833 124.5,108.5C 123.782,106.863 123.616,105.197 124,103.5C 124.671,104.252 125.504,104.586 126.5,104.5C 126.418,106.252 127.251,107.252 129,107.5C 131.074,106.928 132.24,105.595 132.5,103.5C 133.879,101.403 135.545,101.07 137.5,102.5 Z"/></g>
<g><path style="opacity:0.627" fill="#efbfa2" d="M 132.5,103.5 C 132.24,105.595 131.074,106.928 129,107.5C 127.251,107.252 126.418,106.252 126.5,104.5C 127.458,104.953 128.292,105.619 129,106.5C 130.039,105.29 131.206,104.29 132.5,103.5 Z"/></g>
<g><path style="opacity:1" fill="#df8964" d="M 199.5,107.5 C 200.605,108.6 201.938,109.267 203.5,109.5C 204.167,109.5 204.833,109.5 205.5,109.5C 206.5,110.167 207.5,110.833 208.5,111.5C 206.856,111.81 205.856,112.81 205.5,114.5C 203.078,118.487 201.078,118.154 199.5,113.5C 201.117,114.038 202.784,114.371 204.5,114.5C 204.5,113.5 204.5,112.5 204.5,111.5C 201.454,111.817 199.787,110.484 199.5,107.5 Z"/></g>
<g><path style="opacity:1" fill="#6383be" d="M 41.5,90.5 C 42.3382,90.8417 42.6716,91.5084 42.5,92.5C 42.6665,103.172 42.4998,113.839 42,124.5C 41.8195,121.305 41.3195,118.305 40.5,115.5C 41.3713,107.2 41.7047,98.8671 41.5,90.5 Z"/></g>
<g><path style="opacity:1" fill="#768ab5" d="M 47.5,93.5 C 47.2805,109.343 46.6138,125.009 45.5,140.5C 45.6936,130.814 45.3603,121.147 44.5,111.5C 45.03,106.17 45.53,100.836 46,95.5C 46.2784,94.5842 46.7784,93.9175 47.5,93.5 Z"/></g>
<g><path style="opacity:1" fill="#2d4c83" d="M 101.5,109.5 C 101.5,123.5 101.5,137.5 101.5,151.5C 101.336,154.187 101.503,156.854 102,159.5C 102.383,160.056 102.883,160.389 103.5,160.5C 103.025,163.082 103.692,165.082 105.5,166.5C 107.833,166.5 110.167,166.5 112.5,166.5C 112.5,159.833 112.5,153.167 112.5,146.5C 112.5,145.167 113.167,144.5 114.5,144.5C 114.5,145.5 114.5,146.5 114.5,147.5C 114.5,148.167 114.5,148.833 114.5,149.5C 113.51,155.31 113.177,161.31 113.5,167.5C 109.167,167.5 104.833,167.5 100.5,167.5C 100.17,147.993 100.503,128.659 101.5,109.5 Z"/></g>
<g><path style="opacity:1" fill="#1a479f" d="M 112.5,127.5 C 112.5,128.167 112.833,128.5 113.5,128.5C 113.5,130.167 113.5,131.833 113.5,133.5C 112.504,133.414 111.671,133.748 111,134.5C 110.188,138.689 110.355,142.689 111.5,146.5C 111.5,152.833 111.5,159.167 111.5,165.5C 109.265,165.205 107.265,165.539 105.5,166.5C 103.692,165.082 103.025,163.082 103.5,160.5C 103.167,144.486 103.501,128.486 104.5,112.5C 105.999,175.156 107.166,175.156 108,112.5C 108.741,111.359 109.575,111.359 110.5,112.5C 111.167,117.651 111.834,122.651 112.5,127.5 Z"/></g>
<g><path style="opacity:1" fill="#d87b53" d="M 151.5,109.5 C 152.324,112.764 152.658,116.098 152.5,119.5C 152.5,120.167 152.167,120.5 151.5,120.5C 142.397,121.778 139.73,118.278 143.5,110C 146.146,109.503 148.813,109.336 151.5,109.5 Z"/></g>
<g><path style="opacity:1" fill="#dd6f41" d="M 177.5,105.5 C 177.5,106.833 178.167,107.5 179.5,107.5C 180.833,107.5 181.5,108.167 181.5,109.5C 181.285,111.179 181.952,112.179 183.5,112.5C 184.369,114.717 184.702,117.05 184.5,119.5C 182.585,119.784 180.919,119.451 179.5,118.5C 180.244,115.05 178.91,113.384 175.5,113.5C 175.5,115.167 175.5,116.833 175.5,118.5C 175.158,119.338 174.492,119.672 173.5,119.5C 172.982,118.423 172.648,117.256 172.5,116C 174.02,112.388 174.854,108.555 175,104.5C 177.064,103.409 179.231,103.242 181.5,104C 179.942,104.21 178.609,104.71 177.5,105.5 Z"/></g>
<g><path style="opacity:0.137" fill="#fddbcd" d="M 183.5,108.5 C 183.586,109.496 183.252,110.329 182.5,111C 184.256,111.202 185.922,111.702 187.5,112.5C 187.376,113.107 187.043,113.44 186.5,113.5C 185.791,112.596 184.791,112.263 183.5,112.5C 181.952,112.179 181.285,111.179 181.5,109.5C 182.167,109.167 182.833,108.833 183.5,108.5 Z"/></g>
<g><path style="opacity:1" fill="#deedfa" d="M 41.5,90.5 C 41.7047,98.8671 41.3713,107.2 40.5,115.5C 40.5,117.5 40.5,119.5 40.5,121.5C 39.5953,131.333 38.9286,141.333 38.5,151.5C 38.3706,160.703 37.7039,169.87 36.5,179C 36.4668,181.61 35.8001,183.777 34.5,185.5C 33.5447,179.591 33.2114,173.591 33.5,167.5C 34.8333,163.167 34.8333,158.833 33.5,154.5C 32.5184,151.038 32.185,147.371 32.5,143.5C 32.5,140.833 32.5,138.167 32.5,135.5C 34.979,120.626 37.479,105.626 40,90.5C 40.69,89.2617 41.19,89.2617 41.5,90.5 Z"/></g>
<g><path style="opacity:1" fill="#1a499c" d="M 112.5,127.5 C 111.834,122.651 111.167,117.651 110.5,112.5C 109.575,111.359 108.741,111.359 108,112.5C 107.166,175.156 105.999,175.156 104.5,112.5C 103.501,128.486 103.167,144.486 103.5,160.5C 102.883,160.389 102.383,160.056 102,159.5C 101.503,156.854 101.336,154.187 101.5,151.5C 102.496,138.01 102.829,124.344 102.5,110.5C 105.833,110.5 109.167,110.5 112.5,110.5C 112.5,116.167 112.5,121.833 112.5,127.5 Z"/></g>
<g><path style="opacity:0.917" fill="#5174b1" d="M 101.5,109.5 C 105.5,109.5 109.5,109.5 113.5,109.5C 113.5,115.833 113.5,122.167 113.5,128.5C 112.833,128.5 112.5,128.167 112.5,127.5C 112.5,121.833 112.5,116.167 112.5,110.5C 109.167,110.5 105.833,110.5 102.5,110.5C 102.829,124.344 102.496,138.01 101.5,151.5C 101.5,137.5 101.5,123.5 101.5,109.5 Z"/></g>
<g><path style="opacity:0.59" fill="#f0b497" d="M 212.5,102.5 C 212.5,108.833 212.5,115.167 212.5,121.5C 211.5,121.5 210.5,121.5 209.5,121.5C 208.603,118.836 207.27,116.502 205.5,114.5C 205.856,112.81 206.856,111.81 208.5,111.5C 208.981,114.522 209.647,117.522 210.5,120.5C 211.663,114.863 211.83,109.196 211,103.5C 208.96,105.37 207.127,107.37 205.5,109.5C 204.833,109.5 204.167,109.5 203.5,109.5C 205.834,106.334 208.667,103.667 212,101.5C 212.399,101.728 212.565,102.062 212.5,102.5 Z"/></g>
<g><path style="opacity:1" fill="#2c4f98" d="M 86.5,111.5 C 87.1834,113.176 88.5168,113.843 90.5,113.5C 90.5,115.5 90.5,117.5 90.5,119.5C 90.2488,121.17 89.5822,122.67 88.5,124C 85.7795,124.602 83.1128,124.435 80.5,123.5C 77.6038,122.225 74.6038,122.225 71.5,123.5C 74.4678,122.031 77.6344,120.698 81,119.5C 81.4966,117.19 81.6633,114.857 81.5,112.5C 80.1779,112.33 79.0113,112.663 78,113.5C 77.7978,115.256 77.2978,116.922 76.5,118.5C 75.2801,118.113 74.6135,117.28 74.5,116C 75.1476,114.56 75.4809,113.06 75.5,111.5C 74.1667,111.5 72.8333,111.5 71.5,111.5C 71.7989,113.604 71.4656,115.604 70.5,117.5C 69.6143,116.675 69.281,115.675 69.5,114.5C 67.1667,114.5 64.8333,114.5 62.5,114.5C 63.6594,112.75 65.326,111.75 67.5,111.5C 73.7975,110.493 80.1308,110.493 86.5,111.5 Z"/></g>
<g><path style="opacity:0.097" fill="#ffe9d1" d="M 144.5,112.5 C 146.167,112.5 147.833,112.5 149.5,112.5C 149.5,114.167 149.5,115.833 149.5,117.5C 147.833,117.5 146.167,117.5 144.5,117.5C 144.5,115.833 144.5,114.167 144.5,112.5 Z"/></g>
<g><path style="opacity:0.992" fill="#e3a992" d="M 217.5,109.5 C 216.676,112.764 216.342,116.098 216.5,119.5C 213.687,115.886 214.021,112.552 217.5,109.5 Z"/></g>
<g><path style="opacity:1" fill="#d87448" d="M 217.5,109.5 C 220.902,109.342 224.236,109.676 227.5,110.5C 228.128,114.158 226.794,116.658 223.5,118C 223.957,118.414 224.291,118.914 224.5,119.5C 221.844,120.614 219.177,120.614 216.5,119.5C 216.342,116.098 216.676,112.764 217.5,109.5 Z"/></g>
<g><path style="opacity:1" fill="#7c8cb4" d="M 86.5,111.5 C 92.6405,111.948 93.9738,114.615 90.5,119.5C 90.5,117.5 90.5,115.5 90.5,113.5C 88.5168,113.843 87.1834,113.176 86.5,111.5 Z"/></g>
<g><path style="opacity:0.998" fill="#e3a78e" d="M 151.5,109.5 C 148.813,109.336 146.146,109.503 143.5,110C 139.73,118.278 142.397,121.778 151.5,120.5C 144.548,124.444 140.548,122.278 139.5,114C 139.643,111.849 140.643,110.182 142.5,109C 145.696,108.195 148.696,108.362 151.5,109.5 Z"/></g>
<g><path style="opacity:1" fill="#e19774" d="M 183.5,108.5 C 182.833,108.833 182.167,109.167 181.5,109.5C 181.5,108.167 180.833,107.5 179.5,107.5C 178.167,107.5 177.5,106.833 177.5,105.5C 178.609,104.71 179.942,104.21 181.5,104C 179.231,103.242 177.064,103.409 175,104.5C 174.854,108.555 174.02,112.388 172.5,116C 172.648,117.256 172.982,118.423 173.5,119.5C 172.833,119.5 172.167,119.5 171.5,119.5C 170.04,115.775 170.707,112.275 173.5,109C 172.202,106.501 172.536,104.167 174.5,102C 177.167,101.333 179.833,101.333 182.5,102C 184.684,103.898 185.017,106.064 183.5,108.5 Z"/></g>
<g><path style="opacity:0.271" fill="#ffd2ac" d="M 177.5,105.5 C 178.833,105.5 179.5,106.167 179.5,107.5C 179.5,106.167 178.833,105.5 177.5,105.5 Z"/></g>
<g><path style="opacity:0.147" fill="#fdd8b5" d="M 179.5,118.5 C 178.167,118.5 176.833,118.5 175.5,118.5C 175.5,116.833 175.5,115.167 175.5,113.5C 178.91,113.384 180.244,115.05 179.5,118.5 Z"/></g>
<g><path style="opacity:1" fill="#cc7452" d="M 183.5,112.5 C 184.791,112.263 185.791,112.596 186.5,113.5C 185.892,115.602 185.558,117.769 185.5,120C 181.311,120.812 177.311,120.645 173.5,119.5C 174.492,119.672 175.158,119.338 175.5,118.5C 176.833,118.5 178.167,118.5 179.5,118.5C 180.919,119.451 182.585,119.784 184.5,119.5C 184.702,117.05 184.369,114.717 183.5,112.5 Z"/></g>
<g><path style="opacity:0.278" fill="#fedbc7" d="M 163.5,110.5 C 163.5,112.167 163.5,113.833 163.5,115.5C 163.5,116.5 163.5,117.5 163.5,118.5C 162.178,118.67 161.011,118.337 160,117.5C 159.503,114.854 159.336,112.187 159.5,109.5C 158.209,109.263 157.209,109.596 156.5,110.5C 156.167,110.5 155.833,110.5 155.5,110.5C 156.048,107.916 157.715,106.916 160.5,107.5C 160.187,110.247 160.52,112.914 161.5,115.5C 162.17,113.709 162.837,112.042 163.5,110.5 Z"/></g>
<g><path style="opacity:1" fill="#294d9d" d="M 71.5,123.5 C 70.1667,125.167 70.1667,126.833 71.5,128.5C 71.2322,130.099 71.5655,131.432 72.5,132.5C 73.347,133.966 74.6803,134.8 76.5,135C 75.5,135.5 74.5,136 73.5,136.5C 72.1255,135.289 70.6255,134.289 69,133.5C 67.2108,134.409 65.3774,134.576 63.5,134C 64.6034,132.32 64.2701,130.82 62.5,129.5C 61.8333,131.5 61.1667,133.5 60.5,135.5C 59.8165,135.137 59.1499,134.804 58.5,134.5C 58.1667,133.5 57.5,132.833 56.5,132.5C 54.6577,126.268 55.8243,120.601 60,115.5C 60.6708,114.748 61.5041,114.414 62.5,114.5C 64.8333,114.5 67.1667,114.5 69.5,114.5C 69.281,115.675 69.6143,116.675 70.5,117.5C 71.4656,115.604 71.7989,113.604 71.5,111.5C 72.8333,111.5 74.1667,111.5 75.5,111.5C 75.4809,113.06 75.1476,114.56 74.5,116C 74.6135,117.28 75.2801,118.113 76.5,118.5C 77.2978,116.922 77.7978,115.256 78,113.5C 79.0113,112.663 80.1779,112.33 81.5,112.5C 81.6633,114.857 81.4966,117.19 81,119.5C 77.6344,120.698 74.4678,122.031 71.5,123.5 Z"/></g>
<g><path style="opacity:0.388" fill="#fcd9c8" d="M 212.5,102.5 C 213.491,108.979 213.824,115.646 213.5,122.5C 211.901,122.768 210.568,122.434 209.5,121.5C 210.5,121.5 211.5,121.5 212.5,121.5C 212.5,115.167 212.5,108.833 212.5,102.5 Z"/></g>
<g><path style="opacity:0.6" fill="#f5c8b7" d="M 186.5,113.5 C 186.798,116.265 187.798,118.765 189.5,121C 183.848,122.936 178.182,122.936 172.5,121C 171.944,120.617 171.611,120.117 171.5,119.5C 172.167,119.5 172.833,119.5 173.5,119.5C 177.311,120.645 181.311,120.812 185.5,120C 185.558,117.769 185.892,115.602 186.5,113.5 Z"/></g>
<g><path style="opacity:0.557" fill="#f3bca4" d="M 152.5,119.5 C 152.658,116.098 152.324,112.764 151.5,109.5C 152.966,110.347 153.8,111.68 154,113.5C 154.513,112.473 155.013,111.473 155.5,110.5C 155.833,110.5 156.167,110.5 156.5,110.5C 156.26,113.579 156.593,116.579 157.5,119.5C 160.428,120.484 163.428,120.817 166.5,120.5C 166.823,116.774 166.489,113.107 165.5,109.5C 164.831,111.631 164.165,113.631 163.5,115.5C 163.5,113.833 163.5,112.167 163.5,110.5C 164.048,107.916 165.715,106.916 168.5,107.5C 168.5,112.5 168.5,117.5 168.5,122.5C 165.616,121.617 162.783,121.617 160,122.5C 157.317,121.907 154.817,120.907 152.5,119.5 Z"/></g>
<g><path style="opacity:1" fill="#cf6d41" d="M 163.5,115.5 C 164.165,113.631 164.831,111.631 165.5,109.5C 166.489,113.107 166.823,116.774 166.5,120.5C 163.428,120.817 160.428,120.484 157.5,119.5C 156.593,116.579 156.26,113.579 156.5,110.5C 157.209,109.596 158.209,109.263 159.5,109.5C 159.336,112.187 159.503,114.854 160,117.5C 161.011,118.337 162.178,118.67 163.5,118.5C 163.5,117.5 163.5,116.5 163.5,115.5 Z"/></g>
<g><path style="opacity:1" fill="#dfa089" d="M 227.5,110.5 C 229.163,112.438 229.829,114.772 229.5,117.5C 228.448,117.351 227.448,117.517 226.5,118C 227.695,121.303 226.362,122.803 222.5,122.5C 219.898,122.533 217.898,121.533 216.5,119.5C 219.177,120.614 221.844,120.614 224.5,119.5C 224.291,118.914 223.957,118.414 223.5,118C 226.794,116.658 228.128,114.158 227.5,110.5 Z"/></g>
<g><path style="opacity:0.361" fill="#b5ccee" d="M 113.5,109.5 C 114.329,116.989 114.829,124.656 115,132.5C 116.011,131.663 117.178,131.33 118.5,131.5C 117.409,134.192 115.743,134.858 113.5,133.5C 113.5,131.833 113.5,130.167 113.5,128.5C 113.5,122.167 113.5,115.833 113.5,109.5 Z"/></g>
<g><path style="opacity:1" fill="#516c9d" d="M 80.5,123.5 C 78.1432,123.337 75.8098,123.503 73.5,124C 71.9632,125.11 71.2965,126.61 71.5,128.5C 70.1667,126.833 70.1667,125.167 71.5,123.5C 74.6038,122.225 77.6038,122.225 80.5,123.5 Z"/></g>
<g><path style="opacity:0.076" fill="#d7e4f2" d="M 102.5,108.5 C 106.634,107.515 110.968,107.182 115.5,107.5C 116.07,115.154 116.404,122.821 116.5,130.5C 122.031,129.286 127.364,129.619 132.5,131.5C 129.833,131.5 127.167,131.5 124.5,131.5C 122.5,131.5 120.5,131.5 118.5,131.5C 117.178,131.33 116.011,131.663 115,132.5C 114.829,124.656 114.329,116.989 113.5,109.5C 110.038,108.518 106.371,108.185 102.5,108.5 Z"/></g>
<g><path style="opacity:1" fill="#7184b7" d="M 71.5,128.5 C 72.8333,129.167 73.8333,130.167 74.5,131.5C 73.5084,131.328 72.8417,131.662 72.5,132.5C 71.5655,131.432 71.2322,130.099 71.5,128.5 Z"/></g>
<g><path style="opacity:1" fill="#556a99" d="M 124.5,131.5 C 127.167,131.5 129.833,131.5 132.5,131.5C 136.627,131.635 139.294,133.635 140.5,137.5C 138.018,135.757 135.351,134.257 132.5,133C 130.432,132.313 128.432,132.48 126.5,133.5C 125.478,133.145 124.811,132.478 124.5,131.5 Z"/></g>
<g><path style="opacity:0.773" fill="#6b87b9" d="M 202.5,131.5 C 204.216,131.629 205.883,131.962 207.5,132.5C 203.363,132.966 199.029,132.966 194.5,132.5C 194.5,149.5 194.5,166.5 194.5,183.5C 193.503,166.341 193.17,149.008 193.5,131.5C 196.5,131.5 199.5,131.5 202.5,131.5 Z"/></g>
<g><path style="opacity:0.961" fill="#748fb3" d="M 222.5,132.5 C 222.5,132.167 222.5,131.833 222.5,131.5C 224.553,131.402 226.22,132.069 227.5,133.5C 225.708,133.634 224.042,133.301 222.5,132.5 Z"/></g>
<g><path style="opacity:0.749" fill="#8f9dc3" d="M 156.5,132.5 C 155.833,133.5 155.167,134.5 154.5,135.5C 153.833,135.5 153.167,135.5 152.5,135.5C 153.262,133.738 154.596,132.738 156.5,132.5 Z"/></g>
<g><path style="opacity:0.875" fill="#8394bb" d="M 56.5,132.5 C 57.5,132.833 58.1667,133.5 58.5,134.5C 58.5,135.5 58.5,136.5 58.5,137.5C 57.0687,136.22 56.4021,134.553 56.5,132.5 Z"/></g>
<g><path style="opacity:1" fill="#204b9a" d="M 118.5,131.5 C 120.5,131.5 122.5,131.5 124.5,131.5C 124.811,132.478 125.478,133.145 126.5,133.5C 128.432,132.48 130.432,132.313 132.5,133C 135.351,134.257 138.018,135.757 140.5,137.5C 139.833,138.167 139.167,138.833 138.5,139.5C 137.5,139.5 136.5,139.5 135.5,139.5C 135.649,140.552 135.483,141.552 135,142.5C 132.833,141.667 131.333,140.167 130.5,138C 126.848,137.501 123.182,137.335 119.5,137.5C 119.719,136.325 119.386,135.325 118.5,134.5C 116.641,136.192 114.641,137.692 112.5,139C 113.337,140.011 113.67,141.178 113.5,142.5C 115.359,142.539 116.692,141.706 117.5,140C 121.234,139.509 124.901,139.176 128.5,139C 129.147,140.609 129.98,142.109 131,143.5C 131.17,149.528 131.67,155.528 132.5,161.5C 133.425,162.641 134.259,162.641 135,161.5C 135.483,162.448 135.649,163.448 135.5,164.5C 136.5,164.5 137.5,164.5 138.5,164.5C 138.218,161.125 137.218,157.958 135.5,155C 135.667,154.5 135.833,154 136,153.5C 136.915,154.328 137.581,155.328 138,156.5C 138.183,153.635 138.683,150.969 139.5,148.5C 139.5,154.167 139.5,159.833 139.5,165.5C 136.5,165.5 133.5,165.5 130.5,165.5C 130.822,159.642 130.489,153.975 129.5,148.5C 129.5,147.833 129.167,147.5 128.5,147.5C 128.5,145.5 128.5,143.5 128.5,141.5C 125.615,141.194 122.948,141.527 120.5,142.5C 119.609,143.11 118.609,143.443 117.5,143.5C 116.209,143.263 115.209,143.596 114.5,144.5C 113.167,144.5 112.5,145.167 112.5,146.5C 112.167,146.5 111.833,146.5 111.5,146.5C 110.355,142.689 110.188,138.689 111,134.5C 111.671,133.748 112.504,133.414 113.5,133.5C 115.743,134.858 117.409,134.192 118.5,131.5 Z"/></g>
<g><path style="opacity:1" fill="#5e71a5" d="M 177.5,132.5 C 181.089,133.092 183.422,135.092 184.5,138.5C 182.641,137.152 180.641,135.985 178.5,135C 177.748,134.329 177.414,133.496 177.5,132.5 Z"/></g>
<g><path style="opacity:1" fill="#2c4e97" d="M 222.5,131.5 C 222.5,131.833 222.5,132.167 222.5,132.5C 218.818,132.335 215.152,132.501 211.5,133C 210.263,133.232 209.263,133.732 208.5,134.5C 203.947,135.99 203.447,138.323 207,141.5C 211.478,140.494 215.978,140.494 220.5,141.5C 221.994,145.277 222.661,149.277 222.5,153.5C 221.833,153.5 221.167,153.5 220.5,153.5C 221.179,145.344 217.512,141.844 209.5,143C 205.536,145.651 204.536,149.151 206.5,153.5C 206.167,153.5 205.833,153.5 205.5,153.5C 205.028,150.481 203.528,149.481 201,150.5C 200.308,149.975 199.808,149.308 199.5,148.5C 200.885,147.449 201.885,146.116 202.5,144.5C 201.167,143.167 201.167,141.833 202.5,140.5C 200.257,139.526 197.924,139.192 195.5,139.5C 196.349,153.864 196.349,168.197 195.5,182.5C 197.833,182.5 200.167,182.5 202.5,182.5C 202.994,177.068 203.994,171.735 205.5,166.5C 204.708,172.13 204.375,177.797 204.5,183.5C 201.167,183.5 197.833,183.5 194.5,183.5C 194.5,166.5 194.5,149.5 194.5,132.5C 199.029,132.966 203.363,132.966 207.5,132.5C 207.611,131.883 207.944,131.383 208.5,131C 213.252,130.227 217.919,130.393 222.5,131.5 Z"/></g>
<g><path style="opacity:1" fill="#234b9b" d="M 72.5,132.5 C 72.8417,131.662 73.5084,131.328 74.5,131.5C 76.7916,133.267 79.4582,134.267 82.5,134.5C 82.33,135.822 82.6634,136.989 83.5,138C 82.376,138.249 81.376,138.749 80.5,139.5C 81.2739,140.711 82.1072,140.711 83,139.5C 84.5158,142.051 85.3491,141.718 85.5,138.5C 86.9778,138.238 88.3112,138.571 89.5,139.5C 92.3913,144.075 93.2246,149.075 92,154.5C 90.0924,157.206 89.259,160.206 89.5,163.5C 88.8333,163.833 88.1667,164.167 87.5,164.5C 85.8333,164.5 84.1667,164.5 82.5,164.5C 82.5,163.5 82.5,162.5 82.5,161.5C 80.3502,161.905 78.3502,162.405 76.5,163C 75.9394,161.434 76.6061,160.101 78.5,159C 77.7476,158.329 77.4142,157.496 77.5,156.5C 81.8193,153.542 83.1526,149.542 81.5,144.5C 76.7099,142.966 71.7099,142.299 66.5,142.5C 63.4887,141.331 60.822,139.664 58.5,137.5C 58.5,136.5 58.5,135.5 58.5,134.5C 59.1499,134.804 59.8165,135.137 60.5,135.5C 61.1667,133.5 61.8333,131.5 62.5,129.5C 64.2701,130.82 64.6034,132.32 63.5,134C 65.3774,134.576 67.2108,134.409 69,133.5C 70.6255,134.289 72.1255,135.289 73.5,136.5C 74.5,136 75.5,135.5 76.5,135C 74.6803,134.8 73.347,133.966 72.5,132.5 Z"/></g>
<g><path style="opacity:1" fill="#5167a3" d="M 74.5,131.5 C 93.4069,133.654 99.2402,143.654 92,161.5C 91.2917,162.381 90.4584,163.047 89.5,163.5C 89.259,160.206 90.0924,157.206 92,154.5C 93.2246,149.075 92.3913,144.075 89.5,139.5C 88.3112,138.571 86.9778,138.238 85.5,138.5C 85.3491,141.718 84.5158,142.051 83,139.5C 82.1072,140.711 81.2739,140.711 80.5,139.5C 81.376,138.749 82.376,138.249 83.5,138C 82.6634,136.989 82.33,135.822 82.5,134.5C 79.4582,134.267 76.7916,133.267 74.5,131.5 Z"/></g>
<g><path style="opacity:0.859" fill="#97a6ca" d="M 152.5,135.5 C 152.262,137.404 151.262,138.738 149.5,139.5C 149.738,137.596 150.738,136.262 152.5,135.5 Z"/></g>
<g><path style="opacity:1" fill="#1b479f" d="M 208.5,134.5 C 210.942,134.119 211.609,134.786 210.5,136.5C 212.512,138.688 214.845,139.021 217.5,137.5C 219.481,137.437 221.148,138.104 222.5,139.5C 223.429,138.311 223.762,136.978 223.5,135.5C 225.167,135.5 226.833,135.5 228.5,135.5C 228.539,137.359 227.706,138.692 226,139.5C 225.316,146.522 225.483,153.188 226.5,159.5C 226.672,160.492 226.338,161.158 225.5,161.5C 224.746,159.246 223.413,157.413 221.5,156C 221.743,155.098 222.077,154.265 222.5,153.5C 222.661,149.277 221.994,145.277 220.5,141.5C 215.978,140.494 211.478,140.494 207,141.5C 203.447,138.323 203.947,135.99 208.5,134.5 Z"/></g>
<g><path style="opacity:0.427" fill="#96b2d6" d="M 149.5,139.5 C 149.573,141.027 148.906,142.027 147.5,142.5C 147.427,140.973 148.094,139.973 149.5,139.5 Z"/></g>
<g><path style="opacity:1" fill="#254b9d" d="M 177.5,132.5 C 177.414,133.496 177.748,134.329 178.5,135C 180.641,135.985 182.641,137.152 184.5,138.5C 185.338,138.842 185.672,139.508 185.5,140.5C 185.666,145.179 185.499,149.845 185,154.5C 183.602,158.962 182.102,161.962 180.5,163.5C 177.342,162.124 174.009,161.458 170.5,161.5C 169.766,160.292 169.433,158.959 169.5,157.5C 174.376,154.639 175.542,150.639 173,145.5C 171.512,143.84 169.679,142.84 167.5,142.5C 166.432,141.566 165.099,141.232 163.5,141.5C 166.023,140.746 168.689,140.08 171.5,139.5C 172.386,138.675 172.719,137.675 172.5,136.5C 169.193,136.063 166.193,136.73 163.5,138.5C 162.653,136.939 162.986,135.439 164.5,134C 163.095,132.731 161.429,132.231 159.5,132.5C 159.146,134.541 159.146,136.374 159.5,138C 157.939,138.188 157.272,137.355 157.5,135.5C 156.5,135.5 155.5,135.5 154.5,135.5C 155.167,134.5 155.833,133.5 156.5,132.5C 157.058,131.21 158.058,130.377 159.5,130C 161.5,129.833 163.5,129.667 165.5,129.5C 169.931,129.274 173.931,130.274 177.5,132.5 Z"/></g>
<g><path style="opacity:1" fill="#5d75b0" d="M 163.5,141.5 C 165.099,141.232 166.432,141.566 167.5,142.5C 166.833,142.5 166.167,142.5 165.5,142.5C 163.589,143.075 161.922,144.075 160.5,145.5C 160.5,144.167 160.5,142.833 160.5,141.5C 161.5,141.5 162.5,141.5 163.5,141.5 Z"/></g>
<g><path style="opacity:1" fill="#1948a0" d="M 138.5,139.5 C 139.477,142.287 139.81,145.287 139.5,148.5C 138.683,150.969 138.183,153.635 138,156.5C 137.581,155.328 136.915,154.328 136,153.5C 135.833,154 135.667,154.5 135.5,155C 137.218,157.958 138.218,161.125 138.5,164.5C 137.5,164.5 136.5,164.5 135.5,164.5C 135.649,163.448 135.483,162.448 135,161.5C 134.259,162.641 133.425,162.641 132.5,161.5C 131.67,155.528 131.17,149.528 131,143.5C 129.98,142.109 129.147,140.609 128.5,139C 124.901,139.176 121.234,139.509 117.5,140C 116.692,141.706 115.359,142.539 113.5,142.5C 113.67,141.178 113.337,140.011 112.5,139C 114.641,137.692 116.641,136.192 118.5,134.5C 119.386,135.325 119.719,136.325 119.5,137.5C 123.182,137.335 126.848,137.501 130.5,138C 131.333,140.167 132.833,141.667 135,142.5C 135.483,141.552 135.649,140.552 135.5,139.5C 136.5,139.5 137.5,139.5 138.5,139.5 Z"/></g>
<g><path style="opacity:1" fill="#1d479e" d="M 163.5,141.5 C 162.5,141.5 161.5,141.5 160.5,141.5C 160.5,142.833 160.5,144.167 160.5,145.5C 159.25,145.577 158.417,146.244 158,147.5C 157.503,150.146 157.336,152.813 157.5,155.5C 154.572,154.487 153.238,155.82 153.5,159.5C 152.5,159.5 151.5,159.5 150.5,159.5C 150.338,157.473 150.505,155.473 151,153.5C 153.46,150.875 155.294,147.875 156.5,144.5C 154.263,143.868 152.597,142.535 151.5,140.5C 152.763,138.971 153.763,137.305 154.5,135.5C 155.5,135.5 156.5,135.5 157.5,135.5C 157.272,137.355 157.939,138.188 159.5,138C 159.146,136.374 159.146,134.541 159.5,132.5C 161.429,132.231 163.095,132.731 164.5,134C 162.986,135.439 162.653,136.939 163.5,138.5C 166.193,136.73 169.193,136.063 172.5,136.5C 172.719,137.675 172.386,138.675 171.5,139.5C 168.689,140.08 166.023,140.746 163.5,141.5 Z"/></g>
<g><path style="opacity:1" fill="#1c499a" d="M 222.5,132.5 C 224.042,133.301 225.708,133.634 227.5,133.5C 228.167,133.833 228.833,134.167 229.5,134.5C 231.129,139.683 232.462,145.016 233.5,150.5C 232.947,153.817 232.614,157.15 232.5,160.5C 232.167,161.5 231.5,162.167 230.5,162.5C 228.859,161.853 227.526,160.853 226.5,159.5C 225.483,153.188 225.316,146.522 226,139.5C 227.706,138.692 228.539,137.359 228.5,135.5C 226.833,135.5 225.167,135.5 223.5,135.5C 223.762,136.978 223.429,138.311 222.5,139.5C 221.148,138.104 219.481,137.437 217.5,137.5C 214.845,139.021 212.512,138.688 210.5,136.5C 211.609,134.786 210.942,134.119 208.5,134.5C 209.263,133.732 210.263,133.232 211.5,133C 215.152,132.501 218.818,132.335 222.5,132.5 Z"/></g>
<g><path style="opacity:1" fill="#3d5a9b" d="M 66.5,142.5 C 71.7099,142.299 76.7099,142.966 81.5,144.5C 83.1526,149.542 81.8193,153.542 77.5,156.5C 75.3888,157.742 73.3888,157.742 71.5,156.5C 73.099,156.768 74.4324,156.434 75.5,155.5C 80.304,152.788 80.6374,149.622 76.5,146C 72.8909,145.299 69.5575,144.132 66.5,142.5 Z"/></g>
<g><path style="opacity:0.996" fill="#949ec2" d="M 117.5,143.5 C 116.488,144.872 115.488,146.205 114.5,147.5C 114.5,146.5 114.5,145.5 114.5,144.5C 115.209,143.596 116.209,143.263 117.5,143.5 Z"/></g>
<g><path style="opacity:1" fill="#5e73a8" d="M 229.5,134.5 C 233.651,138.313 235.651,143.146 235.5,149C 235.288,153.179 234.288,157.013 232.5,160.5C 232.614,157.15 232.947,153.817 233.5,150.5C 232.462,145.016 231.129,139.683 229.5,134.5 Z"/></g>
<g><path style="opacity:0.902" fill="#f0f6fc" d="M 165.5,142.5 C 166.167,142.5 166.833,142.5 167.5,142.5C 169.679,142.84 171.512,143.84 173,145.5C 175.542,150.639 174.376,154.639 169.5,157.5C 166.579,157.717 163.913,157.051 161.5,155.5C 161.5,155.167 161.5,154.833 161.5,154.5C 161.707,152.396 161.874,150.063 162,147.5C 163.802,146.211 164.969,144.544 165.5,142.5 Z"/></g>
<g><path style="opacity:0.508" fill="#8fa5c8" d="M 102.5,108.5 C 106.371,108.185 110.038,108.518 113.5,109.5C 109.5,109.5 105.5,109.5 101.5,109.5C 100.503,128.659 100.17,147.993 100.5,167.5C 104.833,167.5 109.167,167.5 113.5,167.5C 113.177,161.31 113.51,155.31 114.5,149.5C 114.5,155.833 114.5,162.167 114.5,168.5C 109.5,168.5 104.5,168.5 99.5,168.5C 99.5,148.5 99.5,128.5 99.5,108.5C 100.5,108.5 101.5,108.5 102.5,108.5 Z"/></g>
<g><path style="opacity:1" fill="#cedef3" d="M 32.5,143.5 C 32.185,147.371 32.5184,151.038 33.5,154.5C 33.6747,156.621 33.3414,158.621 32.5,160.5C 32.3259,162.861 31.9926,165.194 31.5,167.5C 30.7789,172.068 29.4456,175.734 27.5,178.5C 27.5,177.5 27.5,176.5 27.5,175.5C 28.6243,164.618 30.291,153.951 32.5,143.5 Z"/></g>
<g><path style="opacity:1" fill="#335396" d="M 55.5,89.5 C 55.7678,91.099 55.4345,92.4324 54.5,93.5C 52.1667,93.5 49.8333,93.5 47.5,93.5C 46.7784,93.9175 46.2784,94.5842 46,95.5C 45.53,100.836 45.03,106.17 44.5,111.5C 45.3603,121.147 45.6936,130.814 45.5,140.5C 45.736,148.542 45.4027,156.542 44.5,164.5C 43.1246,171.289 42.4579,178.289 42.5,185.5C 43.5,185.5 44.5,185.5 45.5,185.5C 47.1992,185.34 48.8659,185.506 50.5,186C 48.9419,186.21 47.6085,186.71 46.5,187.5C 45.791,188.404 44.791,188.737 43.5,188.5C 40.4824,188.704 37.4824,189.037 34.5,189.5C 33.8592,188.518 33.1925,187.518 32.5,186.5C 32.9569,185.702 33.6236,185.369 34.5,185.5C 35.8001,183.777 36.4668,181.61 36.5,179C 37.7039,169.87 38.3706,160.703 38.5,151.5C 39.3247,155.647 39.8247,159.981 40,164.5C 40.4999,150.171 40.6666,135.837 40.5,121.5C 40.5,119.5 40.5,117.5 40.5,115.5C 41.3195,118.305 41.8195,121.305 42,124.5C 42.4998,113.839 42.6665,103.172 42.5,92.5C 43.2216,92.0825 43.7216,91.4158 44,90.5C 44.3333,90.8333 44.6667,91.1667 45,91.5C 48.1494,89.6375 51.6494,88.9709 55.5,89.5 Z"/></g>
<g><path style="opacity:1" fill="#6982b7" d="M 40.5,121.5 C 40.6666,135.837 40.4999,150.171 40,164.5C 39.8247,159.981 39.3247,155.647 38.5,151.5C 38.9286,141.333 39.5953,131.333 40.5,121.5 Z"/></g>
<g><path style="opacity:0.999" fill="#4f75b9" d="M 140.5,137.5 C 141.338,137.842 141.672,138.508 141.5,139.5C 140.507,148.318 140.173,157.318 140.5,166.5C 136.833,166.5 133.167,166.5 129.5,166.5C 129.5,160.5 129.5,154.5 129.5,148.5C 130.489,153.975 130.822,159.642 130.5,165.5C 133.5,165.5 136.5,165.5 139.5,165.5C 139.5,159.833 139.5,154.167 139.5,148.5C 139.81,145.287 139.477,142.287 138.5,139.5C 139.167,138.833 139.833,138.167 140.5,137.5 Z"/></g>
<g><path style="opacity:1" fill="#39589d" d="M 160.5,145.5 C 159.048,148.694 159.381,151.694 161.5,154.5C 161.5,154.833 161.5,155.167 161.5,155.5C 160.167,155.5 158.833,155.5 157.5,155.5C 157.336,152.813 157.503,150.146 158,147.5C 158.417,146.244 159.25,145.577 160.5,145.5 Z"/></g>
<g><path style="opacity:1" fill="#ebf4fb" d="M 220.5,153.5 C 215.833,158.833 211.167,158.833 206.5,153.5C 204.536,149.151 205.536,145.651 209.5,143C 217.512,141.844 221.179,145.344 220.5,153.5 Z"/></g>
<g><path style="opacity:1" fill="#7486b1" d="M 28.5,148.5 C 28.8836,152.489 28.217,156.155 26.5,159.5C 26.6459,155.613 27.3126,151.946 28.5,148.5 Z"/></g>
<g><path style="opacity:1" fill="#6d83b3" d="M 75.5,155.5 C 74.4324,156.434 73.099,156.768 71.5,156.5C 68.8333,156.5 66.1667,156.5 63.5,156.5C 63.2504,155.078 62.417,154.078 61,153.5C 60.0138,154.171 58.8471,154.171 57.5,153.5C 57.811,152.522 58.4777,151.855 59.5,151.5C 64.3745,154.681 69.7078,156.014 75.5,155.5 Z"/></g>
<g><path style="opacity:0.529" fill="#a6b3d7" d="M 55.5,155.5 C 55.573,157.027 54.9063,158.027 53.5,158.5C 53.427,156.973 54.0937,155.973 55.5,155.5 Z"/></g>
<g><path style="opacity:1" fill="#445c99" d="M 57.5,153.5 C 58.8471,154.171 60.0138,154.171 61,153.5C 62.417,154.078 63.2504,155.078 63.5,156.5C 59.5728,155.13 56.9061,156.463 55.5,160.5C 57.4769,162.83 59.4769,165.163 61.5,167.5C 57.6305,166.647 54.4638,164.647 52,161.5C 51.4153,160.002 51.9153,159.002 53.5,158.5C 54.9063,158.027 55.573,157.027 55.5,155.5C 55.8333,154.5 56.5,153.833 57.5,153.5 Z"/></g>
<g><path style="opacity:0.539" fill="#8a9dc2" d="M 141.5,140.5 C 142.494,149.652 142.827,158.985 142.5,168.5C 137.5,168.5 132.5,168.5 127.5,168.5C 127.666,160.493 127.5,152.493 127,144.5C 125.211,142.771 123.044,142.104 120.5,142.5C 122.948,141.527 125.615,141.194 128.5,141.5C 128.5,143.5 128.5,145.5 128.5,147.5C 128.5,154.167 128.5,160.833 128.5,167.5C 132.833,167.5 137.167,167.5 141.5,167.5C 141.5,158.5 141.5,149.5 141.5,140.5 Z"/></g>
<g><path style="opacity:1" fill="#677aae" d="M 185.5,140.5 C 187.897,146.616 188.063,152.95 186,159.5C 184.383,161.763 182.55,163.763 180.5,165.5C 180.5,164.833 180.5,164.167 180.5,163.5C 182.102,161.962 183.602,158.962 185,154.5C 185.499,149.845 185.666,145.179 185.5,140.5 Z"/></g>
<g><path style="opacity:1" fill="#1a479d" d="M 205.5,153.5 C 205.762,154.978 205.429,156.311 204.5,157.5C 203.476,156.147 202.143,155.48 200.5,155.5C 200.306,163.033 200.806,170.366 202,177.5C 198.097,171.694 196.597,172.361 197.5,179.5C 199.167,179.5 200.833,179.5 202.5,179.5C 202.5,180.5 202.5,181.5 202.5,182.5C 200.167,182.5 197.833,182.5 195.5,182.5C 196.349,168.197 196.349,153.864 195.5,139.5C 197.924,139.192 200.257,139.526 202.5,140.5C 201.167,141.833 201.167,143.167 202.5,144.5C 201.885,146.116 200.885,147.449 199.5,148.5C 199.808,149.308 200.308,149.975 201,150.5C 203.528,149.481 205.028,150.481 205.5,153.5 Z"/></g>
<g><path style="opacity:1" fill="#274d9c" d="M 205.5,153.5 C 205.833,153.5 206.167,153.5 206.5,153.5C 211.167,158.833 215.833,158.833 220.5,153.5C 221.167,153.5 221.833,153.5 222.5,153.5C 222.077,154.265 221.743,155.098 221.5,156C 223.413,157.413 224.746,159.246 225.5,161.5C 225.167,163.5 224.833,165.5 224.5,167.5C 219.695,169.612 214.695,169.945 209.5,168.5C 208.486,167.326 207.153,166.66 205.5,166.5C 203.994,171.735 202.994,177.068 202.5,182.5C 202.5,181.5 202.5,180.5 202.5,179.5C 200.833,179.5 199.167,179.5 197.5,179.5C 196.597,172.361 198.097,171.694 202,177.5C 200.806,170.366 200.306,163.033 200.5,155.5C 202.143,155.48 203.476,156.147 204.5,157.5C 205.429,156.311 205.762,154.978 205.5,153.5 Z"/></g>
<g><path style="opacity:1" fill="#4d65a5" d="M 226.5,159.5 C 227.526,160.853 228.859,161.853 230.5,162.5C 229.362,165.086 227.362,166.753 224.5,167.5C 224.833,165.5 225.167,163.5 225.5,161.5C 226.338,161.158 226.672,160.492 226.5,159.5 Z"/></g>
<g><path style="opacity:1" fill="#2c4f9d" d="M 63.5,156.5 C 66.1667,156.5 68.8333,156.5 71.5,156.5C 73.3888,157.742 75.3888,157.742 77.5,156.5C 77.4142,157.496 77.7476,158.329 78.5,159C 76.6061,160.101 75.9394,161.434 76.5,163C 78.3502,162.405 80.3502,161.905 82.5,161.5C 82.5,162.5 82.5,163.5 82.5,164.5C 84.1667,164.5 85.8333,164.5 87.5,164.5C 79.3285,169.872 70.6618,170.872 61.5,167.5C 59.4769,165.163 57.4769,162.83 55.5,160.5C 56.9061,156.463 59.5728,155.13 63.5,156.5 Z"/></g>
<g><path style="opacity:1" fill="#2a4d9d" d="M 152.5,135.5 C 153.167,135.5 153.833,135.5 154.5,135.5C 153.763,137.305 152.763,138.971 151.5,140.5C 152.597,142.535 154.263,143.868 156.5,144.5C 155.294,147.875 153.46,150.875 151,153.5C 150.505,155.473 150.338,157.473 150.5,159.5C 151.5,159.5 152.5,159.5 153.5,159.5C 153.238,155.82 154.572,154.487 157.5,155.5C 158.833,155.5 160.167,155.5 161.5,155.5C 163.913,157.051 166.579,157.717 169.5,157.5C 169.433,158.959 169.766,160.292 170.5,161.5C 171.038,163.117 171.371,164.784 171.5,166.5C 169.633,166.955 167.8,167.622 166,168.5C 163.863,167.923 161.696,167.59 159.5,167.5C 159.66,165.801 159.494,164.134 159,162.5C 157.599,164.192 155.766,164.859 153.5,164.5C 150.065,162.544 147.898,159.544 147,155.5C 146.186,150.98 146.353,146.646 147.5,142.5C 148.906,142.027 149.573,141.027 149.5,139.5C 151.262,138.738 152.262,137.404 152.5,135.5 Z"/></g>
<g><path style="opacity:1" fill="#3f5ba0" d="M 170.5,161.5 C 174.009,161.458 177.342,162.124 180.5,163.5C 180.5,164.167 180.5,164.833 180.5,165.5C 173.826,170.445 166.493,171.612 158.5,169C 156.382,167.951 154.716,166.451 153.5,164.5C 155.766,164.859 157.599,164.192 159,162.5C 159.494,164.134 159.66,165.801 159.5,167.5C 161.696,167.59 163.863,167.923 166,168.5C 167.8,167.622 169.633,166.955 171.5,166.5C 171.371,164.784 171.038,163.117 170.5,161.5 Z"/></g>
<g><path style="opacity:1" fill="#435c91" d="M 32.5,135.5 C 32.5,138.167 32.5,140.833 32.5,143.5C 30.291,153.951 28.6243,164.618 27.5,175.5C 25.631,173.365 24.9644,170.698 25.5,167.5C 25.2786,164.721 25.612,162.054 26.5,159.5C 28.217,156.155 28.8836,152.489 28.5,148.5C 28.7949,143.436 29.4616,138.436 30.5,133.5C 32.2027,132.34 32.8693,133.007 32.5,135.5 Z"/></g>
<g><path style="opacity:1" fill="#90a2bb" d="M 33.5,154.5 C 34.8333,158.833 34.8333,163.167 33.5,167.5C 33.8016,164.941 33.4682,162.607 32.5,160.5C 33.3414,158.621 33.6747,156.621 33.5,154.5 Z"/></g>
<g><path style="opacity:1" fill="#4f73b7" d="M 111.5,146.5 C 111.833,146.5 112.167,146.5 112.5,146.5C 112.5,153.167 112.5,159.833 112.5,166.5C 110.167,166.5 107.833,166.5 105.5,166.5C 107.265,165.539 109.265,165.205 111.5,165.5C 111.5,159.167 111.5,152.833 111.5,146.5 Z"/></g>
<g><path style="opacity:1" fill="#2a477b" d="M 141.5,139.5 C 141.5,139.833 141.5,140.167 141.5,140.5C 141.5,149.5 141.5,158.5 141.5,167.5C 137.167,167.5 132.833,167.5 128.5,167.5C 128.5,160.833 128.5,154.167 128.5,147.5C 129.167,147.5 129.5,147.833 129.5,148.5C 129.5,154.5 129.5,160.5 129.5,166.5C 133.167,166.5 136.833,166.5 140.5,166.5C 140.173,157.318 140.507,148.318 141.5,139.5 Z"/></g>
<g><path style="opacity:0.518" fill="#a6b7d3" d="M 202.5,131.5 C 199.5,131.5 196.5,131.5 193.5,131.5C 193.17,149.008 193.503,166.341 194.5,183.5C 194.5,183.833 194.5,184.167 194.5,184.5C 192.513,166.864 191.847,148.864 192.5,130.5C 196.042,130.187 199.375,130.521 202.5,131.5 Z"/></g>
<g><path style="opacity:1" fill="#657ea9" d="M 25.5,167.5 C 24.9644,170.698 25.631,173.365 27.5,175.5C 27.5,176.5 27.5,177.5 27.5,178.5C 26.2976,177.595 24.9643,177.595 23.5,178.5C 23.4299,174.575 24.0966,170.909 25.5,167.5 Z"/></g>
<g><path style="opacity:0.665" fill="#a9afbb" d="M 101.5,177.5 C 106.975,176.511 112.642,176.178 118.5,176.5C 120.857,176.337 123.19,176.503 125.5,177C 120.844,177.665 116.177,178.165 111.5,178.5C 108.375,177.521 105.042,177.187 101.5,177.5 Z"/></g>
<g><path style="opacity:1" fill="#616e8e" d="M 101.5,177.5 C 105.042,177.187 108.375,177.521 111.5,178.5C 103.469,178.866 95.4694,179.533 87.5,180.5C 85.0521,179.527 82.3854,179.194 79.5,179.5C 86.6112,177.977 93.9445,177.31 101.5,177.5 Z"/></g>
<g><path style="opacity:0.724" fill="#f5dbce" d="M 153.5,177.5 C 153.5,177.167 153.5,176.833 153.5,176.5C 163.58,176.077 173.58,176.577 183.5,178C 183.167,178.333 182.833,178.667 182.5,179C 160.578,180.112 138.578,181.779 116.5,184C 100.311,187.871 83.9782,191.038 67.5,193.5C 69.6287,192.797 71.6287,191.797 73.5,190.5C 73.8333,190.5 74.1667,190.5 74.5,190.5C 80.3718,189.927 86.0385,188.593 91.5,186.5C 106.038,183.661 120.705,181.661 135.5,180.5C 145.442,179.114 155.442,178.281 165.5,178C 161.514,177.501 157.514,177.334 153.5,177.5 Z"/></g>
<g><path style="opacity:0.902" fill="#c8a291" d="M 153.5,177.5 C 157.514,177.334 161.514,177.501 165.5,178C 155.442,178.281 145.442,179.114 135.5,180.5C 135.5,180.167 135.5,179.833 135.5,179.5C 141.428,178.343 147.428,177.676 153.5,177.5 Z"/></g>
<g><path style="opacity:0.294" fill="#bbcae1" d="M 206.5,171.5 C 206.5,176.167 206.5,180.833 206.5,185.5C 202.629,185.815 198.962,185.482 195.5,184.5C 198.833,184.5 202.167,184.5 205.5,184.5C 205.182,179.968 205.515,175.634 206.5,171.5 Z"/></g>
<g><path style="opacity:1" fill="#365294" d="M 31.5,167.5 C 32.9489,172.814 32.6156,178.147 30.5,183.5C 28.5914,182.652 26.5914,182.318 24.5,182.5C 23.596,181.791 23.2627,180.791 23.5,179.5C 23.5,179.167 23.5,178.833 23.5,178.5C 24.9643,177.595 26.2976,177.595 27.5,178.5C 29.4456,175.734 30.7789,172.068 31.5,167.5 Z"/></g>
<g><path style="opacity:0.125" fill="#f5e7e2" d="M 118.5,176.5 C 130.01,175.322 141.677,175.322 153.5,176.5C 153.5,176.833 153.5,177.167 153.5,177.5C 147.428,177.676 141.428,178.343 135.5,179.5C 117.546,180.02 99.8793,182.02 82.5,185.5C 81.5,185.5 80.5,185.5 79.5,185.5C 75.8648,186.114 72.1981,186.448 68.5,186.5C 68.9175,185.778 69.5842,185.278 70.5,185C 74.1667,184.667 77.8333,184.333 81.5,184C 81.1667,183.667 80.8333,183.333 80.5,183C 81.4158,182.722 82.0825,182.222 82.5,181.5C 83.1667,181.5 83.8333,181.5 84.5,181.5C 93.757,181.51 102.757,180.51 111.5,178.5C 116.177,178.165 120.844,177.665 125.5,177C 123.19,176.503 120.857,176.337 118.5,176.5 Z"/></g>
<g><path style="opacity:0.239" fill="#c6cde5" d="M 23.5,179.5 C 23.2627,180.791 23.596,181.791 24.5,182.5C 24.5,182.833 24.5,183.167 24.5,183.5C 23.4138,183.38 22.7472,182.713 22.5,181.5C 22.5427,180.584 22.8761,179.917 23.5,179.5 Z"/></g>
<g><path style="opacity:0.361" fill="#b2c1e3" d="M 44.5,164.5 C 44.5,170.5 44.5,176.5 44.5,182.5C 46.8333,182.5 49.1667,182.5 51.5,182.5C 49.6287,183.797 47.6287,184.797 45.5,185.5C 44.5,185.5 43.5,185.5 42.5,185.5C 42.4579,178.289 43.1246,171.289 44.5,164.5 Z"/></g>
<g><path style="opacity:0.729" fill="#8897be" d="M 77.5,179.5 C 77.3893,180.117 77.056,180.617 76.5,181C 72.5138,181.499 68.5138,181.666 64.5,181.5C 68.6391,180.437 72.9725,179.77 77.5,179.5 Z"/></g>
<g><path style="opacity:0.093" fill="#dee2f6" d="M 111.5,178.5 C 102.757,180.51 93.757,181.51 84.5,181.5C 85.209,180.596 86.209,180.263 87.5,180.5C 95.4694,179.533 103.469,178.866 111.5,178.5 Z"/></g>
<g><path style="opacity:0.993" fill="#ce7f5c" d="M 135.5,179.5 C 135.5,179.833 135.5,180.167 135.5,180.5C 120.705,181.661 106.038,183.661 91.5,186.5C 88.7131,185.523 85.7131,185.19 82.5,185.5C 99.8793,182.02 117.546,180.02 135.5,179.5 Z"/></g>
<g><path style="opacity:1" fill="#4a6395" d="M 32.5,160.5 C 33.4682,162.607 33.8016,164.941 33.5,167.5C 33.2114,173.591 33.5447,179.591 34.5,185.5C 33.6236,185.369 32.9569,185.702 32.5,186.5C 33.1925,187.518 33.8592,188.518 34.5,189.5C 31.1587,187.497 27.8253,185.497 24.5,183.5C 24.5,183.167 24.5,182.833 24.5,182.5C 26.5914,182.318 28.5914,182.652 30.5,183.5C 32.6156,178.147 32.9489,172.814 31.5,167.5C 31.9926,165.194 32.3259,162.861 32.5,160.5 Z"/></g>
<g><path style="opacity:0.875" fill="#869dcb" d="M 205.5,166.5 C 207.153,166.66 208.486,167.326 209.5,168.5C 207.856,168.81 206.856,169.81 206.5,171.5C 205.515,175.634 205.182,179.968 205.5,184.5C 202.167,184.5 198.833,184.5 195.5,184.5C 195.167,184.5 194.833,184.5 194.5,184.5C 194.5,184.167 194.5,183.833 194.5,183.5C 197.833,183.5 201.167,183.5 204.5,183.5C 204.375,177.797 204.708,172.13 205.5,166.5 Z"/></g>
<g><path style="opacity:1" fill="#3b568e" d="M 77.5,179.5 C 78.1667,179.5 78.8333,179.5 79.5,179.5C 82.3854,179.194 85.0521,179.527 87.5,180.5C 86.209,180.263 85.209,180.596 84.5,181.5C 83.8333,181.5 83.1667,181.5 82.5,181.5C 70.4986,183.5 58.4986,185.5 46.5,187.5C 47.6085,186.71 48.9419,186.21 50.5,186C 48.8659,185.506 47.1992,185.34 45.5,185.5C 47.6287,184.797 49.6287,183.797 51.5,182.5C 55.7978,181.8 60.1311,181.467 64.5,181.5C 68.5138,181.666 72.5138,181.499 76.5,181C 77.056,180.617 77.3893,180.117 77.5,179.5 Z"/></g>
<g><path style="opacity:0.06" fill="#e0e5f5" d="M 82.5,181.5 C 82.0825,182.222 81.4158,182.722 80.5,183C 80.8333,183.333 81.1667,183.667 81.5,184C 77.8333,184.333 74.1667,184.667 70.5,185C 69.5842,185.278 68.9175,185.778 68.5,186.5C 64.8183,186.335 61.1516,186.501 57.5,187C 52.5056,188.248 47.5056,189.415 42.5,190.5C 42.8333,189.833 43.1667,189.167 43.5,188.5C 44.791,188.737 45.791,188.404 46.5,187.5C 58.4986,185.5 70.4986,183.5 82.5,181.5 Z"/></g>
<g><path style="opacity:1" fill="#dd6c3d" d="M 79.5,185.5 C 80.5,185.5 81.5,185.5 82.5,185.5C 85.7131,185.19 88.7131,185.523 91.5,186.5C 86.0385,188.593 80.3718,189.927 74.5,190.5C 74.1788,188.952 73.1788,188.285 71.5,188.5C 73.631,187.686 75.9644,187.186 78.5,187C 79.056,186.617 79.3893,186.117 79.5,185.5 Z"/></g>
<g><path style="opacity:1" fill="#6377a5" d="M 43.5,188.5 C 43.1667,189.167 42.8333,189.833 42.5,190.5C 40.1667,190.5 37.8333,190.5 35.5,190.5C 34.8333,190.5 34.5,190.167 34.5,189.5C 37.4824,189.037 40.4824,188.704 43.5,188.5 Z"/></g>
<g><path style="opacity:0.09" fill="#fceadf" d="M 68.5,186.5 C 60.7952,188.343 53.1285,190.343 45.5,192.5C 42.8333,192.833 40.1667,193.167 37.5,193.5C 37.9175,192.778 38.5842,192.278 39.5,192C 37.9419,191.79 36.6085,191.29 35.5,190.5C 37.8333,190.5 40.1667,190.5 42.5,190.5C 47.5056,189.415 52.5056,188.248 57.5,187C 61.1516,186.501 64.8183,186.335 68.5,186.5 Z"/></g>
<g><path style="opacity:1" fill="#d97951" d="M 79.5,185.5 C 79.3893,186.117 79.056,186.617 78.5,187C 75.9644,187.186 73.631,187.686 71.5,188.5C 62.7656,190.006 54.0989,191.339 45.5,192.5C 53.1285,190.343 60.7952,188.343 68.5,186.5C 72.1981,186.448 75.8648,186.114 79.5,185.5 Z"/></g>
<g><path style="opacity:1" fill="#e18459" d="M 73.5,190.5 C 71.6287,191.797 69.6287,192.797 67.5,193.5C 65.0948,194.768 62.4282,195.435 59.5,195.5C 58.1667,195.5 56.8333,195.5 55.5,195.5C 56.0906,194.849 56.7573,194.182 57.5,193.5C 62.9006,192.644 68.234,191.644 73.5,190.5 Z"/></g>
<g><path style="opacity:1" fill="#e36631" d="M 71.5,188.5 C 73.1788,188.285 74.1788,188.952 74.5,190.5C 74.1667,190.5 73.8333,190.5 73.5,190.5C 68.234,191.644 62.9006,192.644 57.5,193.5C 56.7573,194.182 56.0906,194.849 55.5,195.5C 52.6027,196.129 49.936,197.129 47.5,198.5C 44.5,198.5 41.5,198.5 38.5,198.5C 38.5,197.167 38.5,195.833 38.5,194.5C 41.3878,195.01 43.7211,194.344 45.5,192.5C 54.0989,191.339 62.7656,190.006 71.5,188.5 Z"/></g>
<g><path style="opacity:0.255" fill="#fad1bf" d="M 55.5,195.5 C 56.8333,195.5 58.1667,195.5 59.5,195.5C 55.7607,197.102 51.7607,198.102 47.5,198.5C 49.936,197.129 52.6027,196.129 55.5,195.5 Z"/></g>
<g><path style="opacity:1" fill="#de8160" d="M 45.5,192.5 C 43.7211,194.344 41.3878,195.01 38.5,194.5C 38.5,195.833 38.5,197.167 38.5,198.5C 41.5,198.5 44.5,198.5 47.5,198.5C 46.4324,199.434 45.099,199.768 43.5,199.5C 41.7376,199.357 40.0709,199.691 38.5,200.5C 37.5344,198.604 37.2011,196.604 37.5,194.5C 37.5,194.167 37.5,193.833 37.5,193.5C 40.1667,193.167 42.8333,192.833 45.5,192.5 Z"/></g>
<g><path style="opacity:0.212" fill="#f7d5c2" d="M 37.5,194.5 C 37.2011,196.604 37.5344,198.604 38.5,200.5C 40.0709,199.691 41.7376,199.357 43.5,199.5C 41.4855,200.924 39.1522,201.59 36.5,201.5C 36.1984,198.941 36.5318,196.607 37.5,194.5 Z"/></g>
</svg>
