<?xml version="1.0" encoding="UTF-8"?>
<!DOCTYPE svg PUBLIC "-//W3C//DTD SVG 1.1//EN" "http://www.w3.org/Graphics/SVG/1.1/DTD/svg11.dtd">
<svg xmlns="http://www.w3.org/2000/svg" version="1.1" width="450px" height="450px" style="shape-rendering:geometricPrecision; text-rendering:geometricPrecision; image-rendering:optimizeQuality; fill-rule:evenodd; clip-rule:evenodd" xmlns:xlink="http://www.w3.org/1999/xlink">
<g><path style="opacity:0.008" fill="#f05745" d="M 202.5,90.5 C 200.143,90.6633 197.81,90.4966 195.5,90C 198.039,89.2042 200.372,89.3709 202.5,90.5 Z"/></g>
<g><path style="opacity:0.012" fill="#f05745" d="M 192.5,91.5 C 192.897,90.475 193.563,90.3083 194.5,91C 193.906,91.4643 193.239,91.631 192.5,91.5 Z"/></g>
<g><path style="opacity:0.008" fill="#f05745" d="M 202.5,91.5 C 202.5,91.1667 202.5,90.8333 202.5,90.5C 205.167,90.8333 205.167,91.1667 202.5,91.5 Z"/></g>
<g><path style="opacity:0.012" fill="#ef5744" d="M 190.5,91.5 C 191.833,92.1667 191.833,92.1667 190.5,91.5 Z"/></g>
<g><path style="opacity:0.008" fill="#f05744" d="M 205.5,91.5 C 206.833,92.1667 206.833,92.1667 205.5,91.5 Z"/></g>
<g><path style="opacity:0.995" fill="#f25845" d="M 202.5,91.5 C 204.463,92.8202 206.463,94.1535 208.5,95.5C 210.73,100.348 211.063,105.348 209.5,110.5C 208.094,110.973 207.427,111.973 207.5,113.5C 206.833,113.5 206.5,113.833 206.5,114.5C 205.662,114.842 205.328,115.508 205.5,116.5C 204.549,117.919 204.216,119.585 204.5,121.5C 203.833,121.5 203.5,121.833 203.5,122.5C 202.833,122.5 202.5,122.833 202.5,123.5C 200.801,123.66 199.134,123.494 197.5,123C 196.272,119.826 196.439,116.659 198,113.5C 201.631,110.244 202.964,106.244 202,101.5C 200.991,100.342 199.658,99.6752 198,99.5C 196.615,99.5143 195.449,99.8476 194.5,100.5C 193.662,100.842 193.328,101.508 193.5,102.5C 192.094,102.973 191.427,103.973 191.5,105.5C 190.508,105.328 189.842,105.662 189.5,106.5C 188.833,106.5 188.167,106.5 187.5,106.5C 185.461,105.089 184.461,103.089 184.5,100.5C 188.48,93.843 194.48,90.843 202.5,91.5 Z"/></g>
<g><path style="opacity:0.012" fill="#ef5844" d="M 209.5,95.5 C 208.833,94.1667 208.833,94.1667 209.5,95.5 Z"/></g>
<g><path style="opacity:0.008" fill="#ef5744" d="M 209.5,95.5 C 210.833,96.1667 210.833,96.1667 209.5,95.5 Z"/></g>
<g><path style="opacity:0.012" fill="#ef5744" d="M 210.5,97.5 C 211.833,98.1667 211.833,98.1667 210.5,97.5 Z"/></g>
<g><path style="opacity:0.012" fill="#f05745" d="M 184.5,100.5 C 183.475,100.103 183.308,99.4368 184,98.5C 184.464,99.0944 184.631,99.7611 184.5,100.5 Z"/></g>
<g><path style="opacity:0.005" fill="#f05745" d="M 230.5,100.5 C 231.251,99.4265 232.251,99.2599 233.5,100C 232.552,100.483 231.552,100.649 230.5,100.5 Z"/></g>
<g><path style="opacity:0.008" fill="#f05745" d="M 194.5,100.5 C 196.933,100.786 196.933,101.452 194.5,102.5C 194.5,101.833 194.5,101.167 194.5,100.5 Z"/></g>
<g><path style="opacity:0.016" fill="#ef5744" d="M 199.5,100.5 C 200.833,101.167 200.833,101.167 199.5,100.5 Z"/></g>
<g><path style="opacity:0.012" fill="#f05745" d="M 211.5,99.5 C 212.634,101.966 212.801,104.633 212,107.5C 211.503,104.854 211.336,102.187 211.5,99.5 Z"/></g>
<g><path style="opacity:0.012" fill="#ef5745" d="M 237.5,101.5 C 238.833,102.167 238.833,102.167 237.5,101.5 Z"/></g>
<g><path style="opacity:0.004" fill="#eff0ef" d="M 273.5,101.5 C 274.833,102.167 274.833,102.167 273.5,101.5 Z"/></g>
<g><path style="opacity:0.004" fill="#f05745" d="M 182.5,101.5 C 183.525,101.897 183.692,102.563 183,103.5C 182.536,102.906 182.369,102.239 182.5,101.5 Z"/></g>
<g><path style="opacity:0.012" fill="#f05844" d="M 193.5,102.5 C 193.833,102.5 194.167,102.5 194.5,102.5C 194.315,103.17 193.981,103.17 193.5,102.5 Z"/></g>
<g><path style="opacity:0.004" fill="#ef5743" d="M 224.5,102.5 C 225.833,103.167 225.833,103.167 224.5,102.5 Z"/></g>
<g><path style="opacity:0.004" fill="#ef5744" d="M 183.5,104.5 C 184.833,105.167 184.833,105.167 183.5,104.5 Z"/></g>
<g><path style="opacity:0.004" fill="#f05745" d="M 192.5,104.5 C 193.833,105.167 193.833,105.167 192.5,104.5 Z"/></g>
<g><path style="opacity:0.004" fill="#ef5746" d="M 224.5,105.5 C 223.833,104.167 223.833,104.167 224.5,105.5 Z"/></g>
<g><path style="opacity:0.004" fill="#ef5745" d="M 191.5,105.5 C 191.833,105.5 192.167,105.5 192.5,105.5C 192.315,106.17 191.981,106.17 191.5,105.5 Z"/></g>
<g><path style="opacity:0.008" fill="#f05745" d="M 187.5,106.5 C 187.5,106.833 187.5,107.167 187.5,107.5C 184.833,107.167 184.833,106.833 187.5,106.5 Z"/></g>
<g><path style="opacity:0.008" fill="#f05844" d="M 189.5,106.5 C 190.833,107.167 190.833,107.167 189.5,106.5 Z"/></g>
<g><path style="opacity:0.012" fill="#f05744" d="M 223.5,105.5 C 223.631,106.239 223.464,106.906 223,107.5C 222.308,106.563 222.475,105.897 223.5,105.5 Z"/></g>
<g><path style="opacity:0.973" fill="#f0f0f0" d="M 281.5,137.5 C 289.088,148.935 296.921,160.268 305,171.5C 305.5,207.832 305.667,244.165 305.5,280.5C 300.123,270.749 294.956,260.749 290,250.5C 287.861,247.061 285.361,243.894 282.5,241C 270.644,235.115 258.31,232.281 245.5,232.5C 244.209,232.737 243.209,232.404 242.5,231.5C 242.5,226.5 242.5,221.5 242.5,216.5C 244.355,214.967 246.188,213.3 248,211.5C 248.681,209.105 249.515,206.772 250.5,204.5C 258.503,198.784 259.503,192.117 253.5,184.5C 259.181,179.572 259.847,174.072 255.5,168C 253.091,166.293 250.425,165.46 247.5,165.5C 247.557,164.391 247.89,163.391 248.5,162.5C 249.167,162.5 249.5,162.167 249.5,161.5C 255.646,153.234 261.812,144.901 268,136.5C 268.5,127.84 268.666,119.173 268.5,110.5C 270.47,108.353 272.303,106.02 274,103.5C 275.912,105.657 277.579,107.991 279,110.5C 279.333,119.167 279.667,127.833 280,136.5C 280.383,137.056 280.883,137.389 281.5,137.5 Z"/></g>
<g><path style="opacity:0.004" fill="#f05745" d="M 187.5,107.5 C 188.833,108.167 188.833,108.167 187.5,107.5 Z"/></g>
<g><path style="opacity:0.012" fill="#f05745" d="M 243.5,108.5 C 243.369,107.761 243.536,107.094 244,106.5C 244.692,107.437 244.525,108.103 243.5,108.5 Z"/></g>
<g><path style="opacity:0.008" fill="#eff0ef" d="M 268.5,107.5 C 269.833,108.167 269.833,108.167 268.5,107.5 Z"/></g>
<g><path style="opacity:0.012" fill="#ef5745" d="M 210.5,108.5 C 211.833,109.167 211.833,109.167 210.5,108.5 Z"/></g>
<g><path style="opacity:0.004" fill="#ef5744" d="M 225.5,109.5 C 225.5,109.833 225.5,110.167 225.5,110.5C 224.83,110.019 224.83,109.685 225.5,109.5 Z"/></g>
<g><path style="opacity:0.008" fill="#f05744" d="M 230.5,109.5 C 231.833,110.167 231.833,110.167 230.5,109.5 Z"/></g>
<g><path style="opacity:0.008" fill="#f0f1f0" d="M 268.5,110.5 C 267.833,109.167 267.833,109.167 268.5,110.5 Z"/></g>
<g><path style="opacity:0.012" fill="#f05744" d="M 209.5,110.5 C 210.833,111.167 210.833,111.167 209.5,110.5 Z"/></g>
<g><path style="opacity:0.01" fill="#f05745" d="M 225.5,110.5 C 226.873,110.343 228.207,110.51 229.5,111C 227.934,111.765 226.601,111.598 225.5,110.5 Z"/></g>
<g><path style="opacity:0.008" fill="#f05745" d="M 244.5,109.5 C 245.598,110.601 245.765,111.934 245,113.5C 244.51,112.207 244.343,110.873 244.5,109.5 Z"/></g>
<g><path style="opacity:0.009" fill="#f05745" d="M 169.5,112.5 C 171.288,111.378 173.288,111.211 175.5,112C 173.527,112.495 171.527,112.662 169.5,112.5 Z"/></g>
<g><path style="opacity:0.008" fill="#f05744" d="M 208.5,112.5 C 209.833,113.167 209.833,113.167 208.5,112.5 Z"/></g>
<g><path style="opacity:0.004" fill="#f05845" d="M 177.5,113.5 C 178.833,114.167 178.833,114.167 177.5,113.5 Z"/></g>
<g><path style="opacity:0.016" fill="#f05845" d="M 207.5,113.5 C 207.833,113.5 208.167,113.5 208.5,113.5C 208.315,114.17 207.981,114.17 207.5,113.5 Z"/></g>
<g><path style="opacity:0.004" fill="#f05744" d="M 164.5,114.5 C 165.833,115.167 165.833,115.167 164.5,114.5 Z"/></g>
<g><path style="opacity:0.004" fill="#ef5744" d="M 179.5,114.5 C 180.833,115.167 180.833,115.167 179.5,114.5 Z"/></g>
<g><path style="opacity:0.012" fill="#f05744" d="M 195.5,114.5 C 196.833,115.167 196.833,115.167 195.5,114.5 Z"/></g>
<g><path style="opacity:0.991" fill="#f35846" d="M 237.5,102.5 C 239.833,104.167 241.833,106.167 243.5,108.5C 243.425,111.206 243.092,113.873 242.5,116.5C 241.833,116.5 241.5,116.833 241.5,117.5C 240.833,117.5 240.5,117.833 240.5,118.5C 239.833,118.5 239.5,118.833 239.5,119.5C 238.833,119.5 238.5,119.833 238.5,120.5C 237.508,120.328 236.842,120.662 236.5,121.5C 235.508,121.328 234.842,121.662 234.5,122.5C 233.508,122.328 232.842,122.662 232.5,123.5C 231.833,123.5 231.5,123.833 231.5,124.5C 230.833,124.5 230.5,124.833 230.5,125.5C 229.508,125.328 228.842,125.662 228.5,126.5C 227.833,126.5 227.167,126.5 226.5,126.5C 226.5,125.833 226.167,125.5 225.5,125.5C 224.588,124.262 224.421,122.928 225,121.5C 228.347,118.333 232.014,115.666 236,113.5C 237.077,110.738 236.244,109.072 233.5,108.5C 233.44,107.957 233.107,107.624 232.5,107.5C 230.382,108.946 228.049,109.613 225.5,109.5C 224.766,108.292 224.433,106.959 224.5,105.5C 228.115,101.576 232.448,100.576 237.5,102.5 Z"/></g>
<g><path style="opacity:0.004" fill="#ee5744" d="M 233.5,108.5 C 232.833,109.167 232.833,109.167 233.5,108.5 Z"/></g>
<g><path style="opacity:0.008" fill="#f05745" d="M 206.5,114.5 C 206.833,114.5 207.167,114.5 207.5,114.5C 207.672,115.492 207.338,116.158 206.5,116.5C 206.5,115.833 206.5,115.167 206.5,114.5 Z"/></g>
<g><path style="opacity:0.004" fill="#f05745" d="M 243.5,116.5 C 243.369,115.761 243.536,115.094 244,114.5C 244.692,115.437 244.525,116.103 243.5,116.5 Z"/></g>
<g><path style="opacity:0.012" fill="#f05745" d="M 205.5,116.5 C 205.833,116.5 206.167,116.5 206.5,116.5C 206.167,121.833 205.833,121.833 205.5,116.5 Z"/></g>
<g><path style="opacity:0.012" fill="#f05744" d="M 242.5,116.5 C 242.833,116.5 243.167,116.5 243.5,116.5C 243.315,117.17 242.981,117.17 242.5,116.5 Z"/></g>
<g><path style="opacity:0.852" fill="#f25845" d="M 177.5,114.5 C 178.5,116.167 179.833,117.5 181.5,118.5C 181.85,124.401 181.85,130.401 181.5,136.5C 178.217,137.91 175.883,136.91 174.5,133.5C 174.5,132.167 174.5,130.833 174.5,129.5C 175.833,126.833 175.833,124.167 174.5,121.5C 172.833,118.833 171.167,118.833 169.5,121.5C 168.566,122.568 168.232,123.901 168.5,125.5C 167.662,125.842 167.328,126.508 167.5,127.5C 166.833,127.5 166.5,127.833 166.5,128.5C 165.5,128.5 164.5,128.5 163.5,128.5C 163.167,127.5 162.5,126.833 161.5,126.5C 161.5,124.833 161.5,123.167 161.5,121.5C 164.893,114.805 170.226,112.471 177.5,114.5 Z"/></g>
<g><path style="opacity:0.012" fill="#ef5844" d="M 181.5,117.5 C 182.833,118.167 182.833,118.167 181.5,117.5 Z"/></g>
<g><path style="opacity:0.008" fill="#ef5745" d="M 241.5,117.5 C 241.833,117.5 242.167,117.5 242.5,117.5C 242.315,118.17 241.981,118.17 241.5,117.5 Z"/></g>
<g><path style="opacity:0.012" fill="#f05745" d="M 194.5,116.5 C 195.613,117.946 195.78,119.613 195,121.5C 194.506,119.866 194.34,118.199 194.5,116.5 Z"/></g>
<g><path style="opacity:0.004" fill="#ee5745" d="M 240.5,118.5 C 240.833,118.5 241.167,118.5 241.5,118.5C 241.315,119.17 240.981,119.17 240.5,118.5 Z"/></g>
<g><path style="opacity:0.01" fill="#f05845" d="M 182.5,119.5 C 183.525,119.897 183.692,120.563 183,121.5C 182.536,120.906 182.369,120.239 182.5,119.5 Z"/></g>
<g><path style="opacity:0.008" fill="#ef5845" d="M 239.5,119.5 C 239.833,119.5 240.167,119.5 240.5,119.5C 240.315,120.17 239.981,120.17 239.5,119.5 Z"/></g>
<g><path style="opacity:0.008" fill="#f05745" d="M 161.5,121.5 C 161.167,121.5 160.833,121.5 160.5,121.5C 160.833,118.833 161.167,118.833 161.5,121.5 Z"/></g>
<g><path style="opacity:0.012" fill="#f05845" d="M 238.5,120.5 C 238.833,120.5 239.167,120.5 239.5,120.5C 239.315,121.17 238.981,121.17 238.5,120.5 Z"/></g>
<g><path style="opacity:0.008" fill="#f05744" d="M 204.5,121.5 C 205.833,122.167 205.833,122.167 204.5,121.5 Z"/></g>
<g><path style="opacity:0.006" fill="#f05745" d="M 236.5,122.5 C 236.5,122.167 236.5,121.833 236.5,121.5C 237.167,121.5 237.833,121.5 238.5,121.5C 238.158,122.338 237.492,122.672 236.5,122.5 Z"/></g>
<g><path style="opacity:0.007" fill="#f05745" d="M 160.5,121.5 C 160.657,122.873 160.49,124.207 160,125.5C 159.235,123.934 159.402,122.601 160.5,121.5 Z"/></g>
<g><path style="opacity:0.008" fill="#f05745" d="M 169.5,121.5 C 170.573,122.251 170.74,123.251 170,124.5C 169.517,123.552 169.351,122.552 169.5,121.5 Z"/></g>
<g><path style="opacity:0.004" fill="#ef5845" d="M 203.5,122.5 C 203.833,122.5 204.167,122.5 204.5,122.5C 204.315,123.17 203.981,123.17 203.5,122.5 Z"/></g>
<g><path style="opacity:0.008" fill="#f15745" d="M 234.5,123.5 C 234.5,123.167 234.5,122.833 234.5,122.5C 235.167,122.5 235.833,122.5 236.5,122.5C 236.158,123.338 235.492,123.672 234.5,123.5 Z"/></g>
<g><path style="opacity:0.008" fill="#ef5844" d="M 202.5,123.5 C 202.833,123.5 203.167,123.5 203.5,123.5C 203.315,124.17 202.981,124.17 202.5,123.5 Z"/></g>
<g><path style="opacity:0.004" fill="#f05745" d="M 232.5,124.5 C 232.5,124.167 232.5,123.833 232.5,123.5C 233.167,123.5 233.833,123.5 234.5,123.5C 234.158,124.338 233.492,124.672 232.5,124.5 Z"/></g>
<g><path style="opacity:0.008" fill="#f05745" d="M 174.5,121.5 C 174.5,124.167 174.5,126.833 174.5,129.5C 173.167,126.833 173.167,124.167 174.5,121.5 Z"/></g>
<g><path style="opacity:0.008" fill="#f05745" d="M 202.5,124.5 C 203.167,125.167 203.833,125.833 204.5,126.5C 202.146,126.162 199.813,125.662 197.5,125C 199.134,124.506 200.801,124.34 202.5,124.5 Z"/></g>
<g><path style="opacity:0.012" fill="#ef5744" d="M 231.5,124.5 C 231.833,124.5 232.167,124.5 232.5,124.5C 232.315,125.17 231.981,125.17 231.5,124.5 Z"/></g>
<g><path style="opacity:0.01" fill="#f05845" d="M 225.5,125.5 C 226.167,125.5 226.5,125.833 226.5,126.5C 225.399,127.598 224.066,127.765 222.5,127C 223.527,126.487 224.527,125.987 225.5,125.5 Z"/></g>
<g><path style="opacity:0.008" fill="#ef5744" d="M 230.5,125.5 C 230.833,125.5 231.167,125.5 231.5,125.5C 231.315,126.17 230.981,126.17 230.5,125.5 Z"/></g>
<g><path style="opacity:0.008" fill="#f05745" d="M 161.5,126.5 C 160.833,127.167 160.833,127.167 161.5,126.5 Z"/></g>
<g><path style="opacity:0.004" fill="#f05745" d="M 168.5,125.5 C 169.833,126.167 169.833,126.833 168.5,127.5C 168.5,126.833 168.5,126.167 168.5,125.5 Z"/></g>
<g><path style="opacity:0.008" fill="#f05744" d="M 199.5,126.5 C 200.833,127.167 200.833,127.167 199.5,126.5 Z"/></g>
<g><path style="opacity:0.008" fill="#ef5745" d="M 204.5,126.5 C 205.833,127.167 205.833,127.167 204.5,126.5 Z"/></g>
<g><path style="opacity:0.004" fill="#f05745" d="M 228.5,126.5 C 229.167,126.5 229.833,126.5 230.5,126.5C 229.833,127.833 229.167,127.833 228.5,126.5 Z"/></g>
<g><path style="opacity:0.004" fill="#ef5744" d="M 167.5,127.5 C 167.833,127.5 168.167,127.5 168.5,127.5C 168.315,128.17 167.981,128.17 167.5,127.5 Z"/></g>
<g><path style="opacity:0.01" fill="#f05745" d="M 182.5,125.5 C 183.598,126.601 183.765,127.934 183,129.5C 182.51,128.207 182.343,126.873 182.5,125.5 Z"/></g>
<g><path style="opacity:0.004" fill="#ef5844" d="M 163.5,128.5 C 163.5,128.833 163.5,129.167 163.5,129.5C 162.83,129.019 162.83,128.685 163.5,128.5 Z"/></g>
<g><path style="opacity:0.004" fill="#ef5744" d="M 166.5,128.5 C 166.833,128.5 167.167,128.5 167.5,128.5C 167.315,129.17 166.981,129.17 166.5,128.5 Z"/></g>
<g><path style="opacity:0.006" fill="#f15745" d="M 163.5,129.5 C 164.239,129.369 164.906,129.536 165.5,130C 164.563,130.692 163.897,130.525 163.5,129.5 Z"/></g>
<g><path style="opacity:0.01" fill="#f05745" d="M 196.5,129.5 C 197.525,129.897 197.692,130.563 197,131.5C 196.536,130.906 196.369,130.239 196.5,129.5 Z"/></g>
<g><path style="opacity:0.008" fill="#ef5744" d="M 208.5,130.5 C 207.833,129.167 207.833,129.167 208.5,130.5 Z"/></g>
<g><path style="opacity:0.717" fill="#f25846" d="M 204.5,127.5 C 205.167,128.833 206.167,129.833 207.5,130.5C 207.371,132.216 207.038,133.883 206.5,135.5C 205.833,135.5 205.5,135.833 205.5,136.5C 199.513,137.023 197.513,134.523 199.5,129C 201.025,127.991 202.692,127.491 204.5,127.5 Z"/></g>
<g><path style="opacity:0.008" fill="#f15745" d="M 228.5,131.5 C 228.369,130.761 228.536,130.094 229,129.5C 229.692,130.437 229.525,131.103 228.5,131.5 Z"/></g>
<g><path style="opacity:0.004" fill="#ef5844" d="M 172.5,131.5 C 173.833,132.167 173.833,132.167 172.5,131.5 Z"/></g>
<g><path style="opacity:0.008" fill="#f05745" d="M 208.5,130.5 C 209.573,131.251 209.74,132.251 209,133.5C 208.517,132.552 208.351,131.552 208.5,130.5 Z"/></g>
<g><path style="opacity:0.01" fill="#f05745" d="M 219.5,133.5 C 218.427,132.749 218.26,131.749 219,130.5C 219.483,131.448 219.649,132.448 219.5,133.5 Z"/></g>
<g><path style="opacity:0.012" fill="#f05745" d="M 182.5,131.5 C 183.598,132.601 183.765,133.934 183,135.5C 182.51,134.207 182.343,132.873 182.5,131.5 Z"/></g>
<g><path style="opacity:0.01" fill="#f05745" d="M 196.5,132.5 C 197.525,132.897 197.692,133.563 197,134.5C 196.536,133.906 196.369,133.239 196.5,132.5 Z"/></g>
<g><path style="opacity:0.449" fill="#f25846" d="M 228.5,131.5 C 228.5,131.833 228.5,132.167 228.5,132.5C 227.662,132.842 227.328,133.508 227.5,134.5C 226.833,134.5 226.5,134.833 226.5,135.5C 224.142,135.747 222.142,135.081 220.5,133.5C 220.652,129.513 222.652,128.013 226.5,129C 227.066,129.995 227.733,130.828 228.5,131.5 Z"/></g>
<g><path style="opacity:0.008" fill="#f05745" d="M 174.5,133.5 C 174.631,134.239 174.464,134.906 174,135.5C 173.308,134.563 173.475,133.897 174.5,133.5 Z"/></g>
<g><path style="opacity:0.004" fill="#f05745" d="M 219.5,133.5 C 219.833,133.5 220.167,133.5 220.5,133.5C 220.315,134.17 219.981,134.17 219.5,133.5 Z"/></g>
<g><path style="opacity:0.004" fill="#f05745" d="M 228.5,132.5 C 229.833,133.167 229.833,133.833 228.5,134.5C 228.5,133.833 228.5,133.167 228.5,132.5 Z"/></g>
<g><path style="opacity:0.008" fill="#f05744" d="M 207.5,134.5 C 208.833,135.167 208.833,135.167 207.5,134.5 Z"/></g>
<g><path style="opacity:0.004" fill="#f05845" d="M 227.5,134.5 C 227.833,134.5 228.167,134.5 228.5,134.5C 228.315,135.17 227.981,135.17 227.5,134.5 Z"/></g>
<g><path style="opacity:0.004" fill="#f05844" d="M 206.5,135.5 C 206.833,135.5 207.167,135.5 207.5,135.5C 207.315,136.17 206.981,136.17 206.5,135.5 Z"/></g>
<g><path style="opacity:0.008" fill="#f05845" d="M 226.5,135.5 C 226.833,135.5 227.167,135.5 227.5,135.5C 227.315,136.17 226.981,136.17 226.5,135.5 Z"/></g>
<g><path style="opacity:0.008" fill="#f05844" d="M 205.5,136.5 C 205.833,136.5 206.167,136.5 206.5,136.5C 206.315,137.17 205.981,137.17 205.5,136.5 Z"/></g>
<g><path style="opacity:0.008" fill="#f05745" d="M 226.5,136.5 C 225.399,137.598 224.066,137.765 222.5,137C 223.793,136.51 225.127,136.343 226.5,136.5 Z"/></g>
<g><path style="opacity:0.012" fill="#eff0ef" d="M 282.5,137.5 C 281.833,136.167 281.833,136.167 282.5,137.5 Z"/></g>
<g><path style="opacity:0.004" fill="#f05745" d="M 181.5,136.5 C 182.873,136.343 184.207,136.51 185.5,137C 184.263,137.232 183.263,137.732 182.5,138.5C 181.833,138.5 181.167,138.5 180.5,138.5C 180.833,137.833 181.167,137.167 181.5,136.5 Z"/></g>
<g><path style="opacity:0.012" fill="#f05745" d="M 200.5,138.5 C 201.601,137.402 202.934,137.235 204.5,138C 203.207,138.49 201.873,138.657 200.5,138.5 Z"/></g>
<g><path style="opacity:0.008" fill="#f0f1f0" d="M 282.5,137.5 C 283.833,138.167 283.833,138.167 282.5,137.5 Z"/></g>
<g><path style="opacity:0.008" fill="#f05745" d="M 180.5,138.5 C 179.749,139.573 178.749,139.74 177.5,139C 178.448,138.517 179.448,138.351 180.5,138.5 Z"/></g>
<g><path style="opacity:0.448" fill="#f35846" d="M 182.5,138.5 C 186.314,138.651 187.981,140.651 187.5,144.5C 186.833,144.5 186.5,144.833 186.5,145.5C 180.347,145.873 179.014,143.539 182.5,138.5 Z"/></g>
<g><path style="opacity:0.009" fill="#f05745" d="M 188.5,144.5 C 188.343,143.127 188.51,141.793 189,140.5C 189.765,142.066 189.598,143.399 188.5,144.5 Z"/></g>
<g><path style="opacity:0.008" fill="#eff0ef" d="M 262.5,140.5 C 263.833,141.167 263.833,141.167 262.5,140.5 Z"/></g>
<g><path style="opacity:0.004" fill="#f05745" d="M 178.5,140.5 C 179.598,141.601 179.765,142.934 179,144.5C 178.51,143.207 178.343,141.873 178.5,140.5 Z"/></g>
<g><path style="opacity:0.004" fill="#ef5745" d="M 187.5,144.5 C 187.833,144.5 188.167,144.5 188.5,144.5C 188.315,145.17 187.981,145.17 187.5,144.5 Z"/></g>
<g><path style="opacity:0.004" fill="#ef5844" d="M 186.5,145.5 C 186.833,145.5 187.167,145.5 187.5,145.5C 187.315,146.17 186.981,146.17 186.5,145.5 Z"/></g>
<g><path style="opacity:0.008" fill="#f05745" d="M 186.5,146.5 C 185.054,147.613 183.387,147.78 181.5,147C 183.134,146.506 184.801,146.34 186.5,146.5 Z"/></g>
<g><path style="opacity:0.006" fill="#3c3c3b" d="M 207.5,147.5 C 208.946,146.387 210.613,146.22 212.5,147C 210.866,147.494 209.199,147.66 207.5,147.5 Z"/></g>
<g><path style="opacity:0.01" fill="#3d3c3c" d="M 204.5,148.5 C 204.897,147.475 205.563,147.308 206.5,148C 205.906,148.464 205.239,148.631 204.5,148.5 Z"/></g>
<g><path style="opacity:0.012" fill="#3d3c3b" d="M 203.5,149.5 C 202.833,148.167 202.833,148.167 203.5,149.5 Z"/></g>
<g><path style="opacity:0.968" fill="#3e3d3d" d="M 221.5,155.5 C 221.833,156.833 222.167,156.833 222.5,155.5C 223.167,155.5 223.5,155.167 223.5,154.5C 227.847,151.007 232.847,149.673 238.5,150.5C 243.821,154.148 246.821,159.148 247.5,165.5C 250.425,165.46 253.091,166.293 255.5,168C 259.847,174.072 259.181,179.572 253.5,184.5C 259.503,192.117 258.503,198.784 250.5,204.5C 249.515,206.772 248.681,209.105 248,211.5C 246.188,213.3 244.355,214.967 242.5,216.5C 241.167,216.5 239.833,216.5 238.5,216.5C 238.337,214.143 238.503,211.81 239,209.5C 243.974,206.551 245.974,202.218 245,196.5C 239.862,194.051 234.696,191.551 229.5,189C 227.513,186.86 226.18,184.36 225.5,181.5C 219.902,186.933 214.568,186.767 209.5,181C 208.5,180.333 207.5,180.333 206.5,181C 203.992,185.172 202.158,189.672 201,194.5C 199.591,195.781 198.091,196.781 196.5,197.5C 196.167,197.5 195.833,197.5 195.5,197.5C 194.486,196.326 193.153,195.66 191.5,195.5C 185.841,190.841 183.508,184.841 184.5,177.5C 185.404,176.791 185.737,175.791 185.5,174.5C 187.549,171.45 190.216,169.117 193.5,167.5C 193.691,159.786 197.025,153.786 203.5,149.5C 211.114,146.986 217.114,148.986 221.5,155.5 Z"/></g>
<g><path style="opacity:0.012" fill="#3d3d3c" d="M 238.5,149.5 C 239.833,150.167 239.833,150.167 238.5,149.5 Z"/></g>
<g><path style="opacity:0.006" fill="#3d3c3c" d="M 223.5,154.5 C 222.833,154.5 222.5,154.833 222.5,155.5C 222.167,155.5 221.833,155.5 221.5,155.5C 221.711,153.576 222.377,153.243 223.5,154.5 Z"/></g>
<g><path style="opacity:0.005" fill="#f0f0f0" d="M 126.5,156.5 C 128.288,155.378 130.288,155.211 132.5,156C 130.527,156.495 128.527,156.662 126.5,156.5 Z"/></g>
<g><path style="opacity:0.008" fill="#eff0ef" d="M 251.5,155.5 C 252.833,156.167 252.833,156.167 251.5,155.5 Z"/></g>
<g><path style="opacity:0.01" fill="#eff0ef" d="M 126.5,156.5 C 126.5,156.833 126.5,157.167 126.5,157.5C 123.833,157.167 123.833,156.833 126.5,156.5 Z"/></g>
<g><path style="opacity:0.008" fill="#f0f0f0" d="M 135.5,157.5 C 134.761,157.631 134.094,157.464 133.5,157C 134.437,156.308 135.103,156.475 135.5,157.5 Z"/></g>
<g><path style="opacity:0.896" fill="#f1f1f1" d="M 126.5,157.5 C 129.545,157.508 132.545,157.841 135.5,158.5C 137.833,160.167 139.833,162.167 141.5,164.5C 141.5,165.167 141.833,165.5 142.5,165.5C 142.842,166.338 143.508,166.672 144.5,166.5C 145.209,167.404 146.209,167.737 147.5,167.5C 148.795,168.488 150.128,169.488 151.5,170.5C 151.433,171.959 151.766,173.292 152.5,174.5C 151.662,174.842 151.328,175.508 151.5,176.5C 150.833,176.5 150.5,176.833 150.5,177.5C 149.833,177.5 149.5,177.833 149.5,178.5C 148.508,178.328 147.842,178.662 147.5,179.5C 131.517,180.366 115.517,180.7 99.5,180.5C 92.9606,176.325 92.9606,171.825 99.5,167C 100.872,166.598 102.205,166.098 103.5,165.5C 106.723,167.08 110.056,167.914 113.5,168C 117.177,163.47 121.51,159.97 126.5,157.5 Z"/></g>
<g><path style="opacity:0.012" fill="#eff0ef" d="M 135.5,157.5 C 136.833,158.167 136.833,158.167 135.5,157.5 Z"/></g>
<g><path style="opacity:0.004" fill="#f0f1f0" d="M 137.5,158.5 C 138.833,159.167 138.833,159.167 137.5,158.5 Z"/></g>
<g><path style="opacity:0.007" fill="#3d3c3c" d="M 193.5,167.5 C 192.761,167.631 192.094,167.464 191.5,167C 192.264,164.931 192.764,162.764 193,160.5C 193.497,162.81 193.663,165.143 193.5,167.5 Z"/></g>
<g><path style="opacity:0.012" fill="#838383" d="M 249.5,161.5 C 248.833,161.5 248.5,161.833 248.5,162.5C 247.224,161.614 247.224,160.614 248.5,159.5C 249.298,159.957 249.631,160.624 249.5,161.5 Z"/></g>
<g><path style="opacity:0.005" fill="#f0f0f0" d="M 144.5,165.5 C 143.833,165.5 143.167,165.5 142.5,165.5C 141.833,165.5 141.5,165.167 141.5,164.5C 142.322,162.45 143.322,162.783 144.5,165.5 Z"/></g>
<g><path style="opacity:0.008" fill="#f0f0f0" d="M 99.5,165.5 C 99.8966,164.475 100.563,164.308 101.5,165C 100.906,165.464 100.239,165.631 99.5,165.5 Z"/></g>
<g><path style="opacity:0.012" fill="#eff0ef" d="M 144.5,166.5 C 144.5,166.167 144.5,165.833 144.5,165.5C 147.167,165.833 147.167,166.167 144.5,166.5 Z"/></g>
<g><path style="opacity:0.012" fill="#eff0ef" d="M 147.5,166.5 C 148.833,167.167 148.833,167.167 147.5,166.5 Z"/></g>
<g><path style="opacity:0.008" fill="#f0f1f0" d="M 152.5,170.5 C 151.833,169.167 151.833,169.167 152.5,170.5 Z"/></g>
<g><path style="opacity:0.008" fill="#f0f0f0" d="M 152.5,170.5 C 153.525,170.897 153.692,171.563 153,172.5C 152.536,171.906 152.369,171.239 152.5,170.5 Z"/></g>
<g><path style="opacity:0.008" fill="#3c3c3b" d="M 185.5,171.5 C 186.833,172.167 186.833,172.167 185.5,171.5 Z"/></g>
<g><path style="opacity:0.011" fill="#f0f0f0" d="M 92.5,172.5 C 93.5983,173.601 93.765,174.934 93,176.5C 92.51,175.207 92.3433,173.873 92.5,172.5 Z"/></g>
<g><path style="opacity:0.012" fill="#3c3c3b" d="M 185.5,174.5 C 184.833,173.167 184.833,173.167 185.5,174.5 Z"/></g>
<g><path style="opacity:0.008" fill="#f0f0f0" d="M 152.5,174.5 C 153.833,175.167 153.833,175.833 152.5,176.5C 152.5,175.833 152.5,175.167 152.5,174.5 Z"/></g>
<g><path style="opacity:0.012" fill="#3d3c3c" d="M 184.5,177.5 C 183.475,177.103 183.308,176.437 184,175.5C 184.464,176.094 184.631,176.761 184.5,177.5 Z"/></g>
<g><path style="opacity:0.008" fill="#f0f1f0" d="M 151.5,176.5 C 151.833,176.5 152.167,176.5 152.5,176.5C 152.315,177.17 151.981,177.17 151.5,176.5 Z"/></g>
<g><path style="opacity:0.004" fill="#eff0ef" d="M 93.5,177.5 C 94.8333,178.167 94.8333,178.167 93.5,177.5 Z"/></g>
<g><path style="opacity:0.008" fill="#eff0ef" d="M 150.5,177.5 C 150.833,177.5 151.167,177.5 151.5,177.5C 151.315,178.17 150.981,178.17 150.5,177.5 Z"/></g>
<g><path style="opacity:0.008" fill="#eff0ef" d="M 149.5,178.5 C 149.833,178.5 150.167,178.5 150.5,178.5C 150.315,179.17 149.981,179.17 149.5,178.5 Z"/></g>
<g><path style="opacity:0.008" fill="#3d3c3c" d="M 182.5,178.5 C 183.629,180.628 183.796,182.961 183,185.5C 182.503,183.19 182.337,180.857 182.5,178.5 Z"/></g>
<g><path style="opacity:0.008" fill="#f0f0f0" d="M 147.5,180.5 C 147.5,180.167 147.5,179.833 147.5,179.5C 148.167,179.5 148.833,179.5 149.5,179.5C 149.158,180.338 148.492,180.672 147.5,180.5 Z"/></g>
<g><path style="opacity:0.008" fill="#f0f0f0" d="M 99.5,180.5 C 99.1034,181.525 98.4368,181.692 97.5,181C 98.0944,180.536 98.7611,180.369 99.5,180.5 Z"/></g>
<g><path style="opacity:0.008" fill="#f0f0f0" d="M 147.5,180.5 C 145.372,181.629 143.039,181.796 140.5,181C 142.81,180.503 145.143,180.337 147.5,180.5 Z"/></g>
<g><path style="opacity:0.006" fill="#f0f0f0" d="M 100.5,182.5 C 112.993,181.34 125.66,181.173 138.5,182C 125.838,182.5 113.171,182.667 100.5,182.5 Z"/></g>
<g><path style="opacity:1" fill="#eeca95" d="M 238.5,216.5 C 238.183,220.702 238.517,224.702 239.5,228.5C 239.328,229.492 239.662,230.158 240.5,230.5C 240.842,231.338 241.508,231.672 242.5,231.5C 243.209,232.404 244.209,232.737 245.5,232.5C 238.172,247.764 226.505,252.264 210.5,246C 205.623,242.624 201.623,238.457 198.5,233.5C 202.963,233.535 205.296,231.369 205.5,227C 202.181,220.849 199.514,214.349 197.5,207.5C 197.5,206.833 197.167,206.5 196.5,206.5C 196.5,206.167 196.5,205.833 196.5,205.5C 196.5,202.833 196.5,200.167 196.5,197.5C 198.091,196.781 199.591,195.781 201,194.5C 202.158,189.672 203.992,185.172 206.5,181C 207.5,180.333 208.5,180.333 209.5,181C 214.568,186.767 219.902,186.933 225.5,181.5C 226.18,184.36 227.513,186.86 229.5,189C 234.696,191.551 239.862,194.051 245,196.5C 245.974,202.218 243.974,206.551 239,209.5C 238.503,211.81 238.337,214.143 238.5,216.5 Z"/></g>
<g><path style="opacity:0.008" fill="#3c3c3b" d="M 191.5,195.5 C 190.833,196.167 190.833,196.167 191.5,195.5 Z"/></g>
<g><path style="opacity:0.011" fill="#efe7de" d="M 195.5,197.5 C 195.194,200.385 195.527,203.052 196.5,205.5C 196.5,205.833 196.5,206.167 196.5,206.5C 186.494,206.666 176.494,206.5 166.5,206C 175.827,205.5 185.161,205.334 194.5,205.5C 194.768,202.881 194.435,200.381 193.5,198C 194.094,197.536 194.761,197.369 195.5,197.5 Z"/></g>
<g><path style="opacity:0.012" fill="#f0eeee" d="M 164.5,207.5 C 165.659,218.659 165.826,229.992 165,241.5C 164.5,230.172 164.333,218.838 164.5,207.5 Z"/></g>
<g><path style="opacity:0.999" fill="#f1f1f0" d="M 197.5,207.5 C 199.514,214.349 202.181,220.849 205.5,227C 205.296,231.369 202.963,233.535 198.5,233.5C 197.848,232.275 196.681,231.608 195,231.5C 185.052,233.557 175.552,236.891 166.5,241.5C 166.5,230.167 166.5,218.833 166.5,207.5C 176.833,207.5 187.167,207.5 197.5,207.5 Z"/></g>
<g><path style="opacity:0.012" fill="#eddfcd" d="M 240.5,230.5 C 240.672,229.508 240.338,228.842 239.5,228.5C 239.177,224.774 239.511,221.107 240.5,217.5C 241.811,221.984 241.811,226.317 240.5,230.5 Z"/></g>
<g><path style="opacity:0.004" fill="#eff0ef" d="M 316.5,231.5 C 317.833,232.167 317.833,232.167 316.5,231.5 Z"/></g>
<g><path style="opacity:1" fill="#f15846" d="M 198.5,233.5 C 201.623,238.457 205.623,242.624 210.5,246C 226.505,252.264 238.172,247.764 245.5,232.5C 258.31,232.281 270.644,235.115 282.5,241C 285.361,243.894 287.861,247.061 290,250.5C 294.956,260.749 300.123,270.749 305.5,280.5C 306.992,284.818 308.992,288.818 311.5,292.5C 311.833,293.833 312.167,293.833 312.5,292.5C 313.167,292.5 313.5,292.167 313.5,291.5C 314.5,291.167 315.167,290.5 315.5,289.5C 317.716,288.797 319.549,287.464 321,285.5C 326.697,277.428 332.864,269.762 339.5,262.5C 340.183,262.863 340.85,263.196 341.5,263.5C 344.833,267.5 348.5,271.167 352.5,274.5C 353.262,276.262 354.596,277.262 356.5,277.5C 356.5,278.5 356.5,279.5 356.5,280.5C 347.59,294.595 338.423,308.595 329,322.5C 324.867,327.634 320.367,332.468 315.5,337C 310.112,339.308 305.112,338.808 300.5,335.5C 300.5,326.833 300.5,318.167 300.5,309.5C 307.863,309.831 315.197,309.497 322.5,308.5C 315.352,300.184 308.019,292.018 300.5,284C 249.5,283.333 198.5,283.333 147.5,284C 140.539,292.63 133.205,300.963 125.5,309C 132.492,309.5 139.492,309.666 146.5,309.5C 146.5,314.5 146.5,319.5 146.5,324.5C 146.5,325.167 146.5,325.833 146.5,326.5C 145.5,326.833 144.833,327.5 144.5,328.5C 143.833,328.5 143.5,328.833 143.5,329.5C 141.973,329.427 140.973,330.094 140.5,331.5C 137.649,333.505 134.649,335.338 131.5,337C 129.115,337.556 126.782,337.39 124.5,336.5C 121.805,333.474 119.138,330.474 116.5,327.5C 115.525,325.205 114.192,323.205 112.5,321.5C 111.89,319.566 110.89,317.899 109.5,316.5C 109.672,315.508 109.338,314.842 108.5,314.5C 108.25,312.326 107.25,310.659 105.5,309.5C 105.672,308.508 105.338,307.842 104.5,307.5C 104.672,306.508 104.338,305.842 103.5,305.5C 103.672,304.508 103.338,303.842 102.5,303.5C 102.672,302.508 102.338,301.842 101.5,301.5C 101.672,300.508 101.338,299.842 100.5,299.5C 100.672,298.508 100.338,297.842 99.5,297.5C 99.6716,296.508 99.3382,295.842 98.5,295.5C 98.5979,293.447 97.9313,291.78 96.5,290.5C 96.6716,289.508 96.3382,288.842 95.5,288.5C 95.3404,286.847 94.6737,285.514 93.5,284.5C 91.5101,280.469 92.5101,277.469 96.5,275.5C 101.521,272.479 105.521,268.479 108.5,263.5C 109.833,262.167 111.167,262.167 112.5,263.5C 112.738,265.404 113.738,266.738 115.5,267.5C 115.738,269.404 116.738,270.738 118.5,271.5C 120.458,274.792 122.791,277.792 125.5,280.5C 126.08,282.749 127.413,284.415 129.5,285.5C 129.427,287.027 130.094,288.027 131.5,288.5C 132.167,289.833 132.833,289.833 133.5,288.5C 135.451,287.284 136.951,285.618 138,283.5C 145.804,268.185 155.304,254.185 166.5,241.5C 175.552,236.891 185.052,233.557 195,231.5C 196.681,231.608 197.848,232.275 198.5,233.5 Z M 129.5,285.5 C 130.167,285.833 130.833,286.167 131.5,286.5C 131.5,287.167 131.5,287.833 131.5,288.5C 130.094,288.027 129.427,287.027 129.5,285.5 Z M 143.5,329.5 C 143.5,329.833 143.5,330.167 143.5,330.5C 142.609,331.11 141.609,331.443 140.5,331.5C 140.973,330.094 141.973,329.427 143.5,329.5 Z"/></g>
<g><path style="opacity:0.939" fill="#f1f0f0" d="M 339.5,250.5 C 340.436,251.974 341.77,252.974 343.5,253.5C 344.306,254.728 345.306,255.728 346.5,256.5C 345.221,259.112 343.555,261.445 341.5,263.5C 340.85,263.196 340.183,262.863 339.5,262.5C 332.864,269.762 326.697,277.428 321,285.5C 319.549,287.464 317.716,288.797 315.5,289.5C 315.167,270.821 315.5,252.155 316.5,233.5C 324.018,239.42 331.685,245.086 339.5,250.5 Z"/></g>
<g><path style="opacity:0.01" fill="#eeca95" d="M 71.5,247.5 C 73.6282,246.371 75.9615,246.204 78.5,247C 76.1902,247.497 73.8568,247.663 71.5,247.5 Z"/></g>
<g><path style="opacity:0.012" fill="#eeca95" d="M 79.5,248.5 C 80.2506,247.427 81.2506,247.26 82.5,248C 81.552,248.483 80.552,248.649 79.5,248.5 Z"/></g>
<g><path style="opacity:0.009" fill="#eeca94" d="M 83.5,249.5 C 84.2506,248.427 85.2506,248.26 86.5,249C 85.552,249.483 84.552,249.649 83.5,249.5 Z"/></g>
<g><path style="opacity:0.012" fill="#eeca95" d="M 361.5,249.5 C 362.251,248.427 363.251,248.26 364.5,249C 363.552,249.483 362.552,249.649 361.5,249.5 Z"/></g>
<g><path style="opacity:0.004" fill="#eeca95" d="M 378.5,249.5 C 377.833,248.167 377.833,248.167 378.5,249.5 Z"/></g>
<g><path style="opacity:0.01" fill="#eeca95" d="M 45.5,250.5 C 46.9464,249.387 48.6131,249.22 50.5,250C 48.8659,250.494 47.1992,250.66 45.5,250.5 Z"/></g>
<g><path style="opacity:0.008" fill="#eeca95" d="M 87.5,250.5 C 88.2506,249.427 89.2506,249.26 90.5,250C 89.552,250.483 88.552,250.649 87.5,250.5 Z"/></g>
<g><path style="opacity:0.012" fill="#eff0ef" d="M 339.5,249.5 C 340.833,250.167 340.833,250.167 339.5,249.5 Z"/></g>
<g><path style="opacity:0.012" fill="#eeca95" d="M 397.5,250.5 C 398.946,249.387 400.613,249.22 402.5,250C 400.866,250.494 399.199,250.66 397.5,250.5 Z"/></g>
<g><path style="opacity:0.01" fill="#eeca95" d="M 51.5,251.5 C 51.8966,250.475 52.5632,250.308 53.5,251C 52.9056,251.464 52.2389,251.631 51.5,251.5 Z"/></g>
<g><path style="opacity:0.004" fill="#edca95" d="M 68.5,250.5 C 69.8333,251.167 69.8333,251.167 68.5,250.5 Z"/></g>
<g><path style="opacity:0.006" fill="#eeca95" d="M 91.5,251.5 C 92.2506,250.427 93.2506,250.26 94.5,251C 93.552,251.483 92.552,251.649 91.5,251.5 Z"/></g>
<g><path style="opacity:0.008" fill="#f0f1f0" d="M 341.5,250.5 C 342.833,251.167 342.833,251.167 341.5,250.5 Z"/></g>
<g><path style="opacity:0.969" fill="#efcb96" d="M 377.5,249.5 C 377.714,251.144 377.38,252.644 376.5,254C 384.486,254.669 392.32,253.836 400,251.5C 401.533,251.773 403.033,252.106 404.5,252.5C 404.747,254.858 404.081,256.858 402.5,258.5C 401.508,258.328 400.842,258.662 400.5,259.5C 398.214,259.595 396.214,260.262 394.5,261.5C 392.901,261.232 391.568,261.566 390.5,262.5C 388.585,262.216 386.919,262.549 385.5,263.5C 382.941,263.198 380.607,263.532 378.5,264.5C 374.298,264.183 370.298,264.517 366.5,265.5C 365.209,265.263 364.209,265.596 363.5,266.5C 362.508,266.328 361.842,266.662 361.5,267.5C 360.508,267.328 359.842,267.662 359.5,268.5C 357.973,268.427 356.973,269.094 356.5,270.5C 354.29,270.894 352.957,272.227 352.5,274.5C 348.5,271.167 344.833,267.5 341.5,263.5C 343.555,261.445 345.221,259.112 346.5,256.5C 356.281,251.47 366.615,249.137 377.5,249.5 Z"/></g>
<g><path style="opacity:0.008" fill="#edca94" d="M 394.5,251.5 C 394.897,250.475 395.563,250.308 396.5,251C 395.906,251.464 395.239,251.631 394.5,251.5 Z"/></g>
<g><path style="opacity:0.004" fill="#edca94" d="M 404.5,251.5 C 403.833,250.167 403.833,250.167 404.5,251.5 Z"/></g>
<g><path style="opacity:0.988" fill="#efcb96" d="M 83.5,249.5 C 84.5676,250.434 85.901,250.768 87.5,250.5C 92.1721,252.016 96.8388,253.849 101.5,256C 103.966,258.479 106.299,260.979 108.5,263.5C 105.521,268.479 101.521,272.479 96.5,275.5C 94.1002,272.097 91.1002,269.43 87.5,267.5C 85.8984,265.926 83.8984,265.259 81.5,265.5C 72.2876,264.279 62.9543,262.946 53.5,261.5C 51.7857,260.262 49.7857,259.595 47.5,259.5C 41.6298,253.964 42.9631,251.297 51.5,251.5C 52.209,252.404 53.209,252.737 54.5,252.5C 60.2566,254.313 66.2566,254.813 72.5,254C 71.9558,253.283 71.2891,252.783 70.5,252.5C 70.33,251.178 70.6634,250.011 71.5,249C 75.5104,248.643 79.5104,248.81 83.5,249.5 Z"/></g>
<g><path style="opacity:0.008" fill="#eeca95" d="M 54.5,252.5 C 55.9464,251.387 57.6131,251.22 59.5,252C 57.8659,252.494 56.1992,252.66 54.5,252.5 Z"/></g>
<g><path style="opacity:0.012" fill="#eeca95" d="M 351.5,252.5 C 351.897,251.475 352.563,251.308 353.5,252C 352.906,252.464 352.239,252.631 351.5,252.5 Z"/></g>
<g><path style="opacity:0.01" fill="#eeca95" d="M 388.5,252.5 C 389.946,251.387 391.613,251.22 393.5,252C 391.866,252.494 390.199,252.66 388.5,252.5 Z"/></g>
<g><path style="opacity:0.004" fill="#edca94" d="M 404.5,251.5 C 405.833,252.167 405.833,252.167 404.5,251.5 Z"/></g>
<g><path style="opacity:0.008" fill="#eeca95" d="M 70.5,252.5 C 67.6965,253.638 64.6965,253.805 61.5,253C 64.4816,252.502 67.4816,252.335 70.5,252.5 Z"/></g>
<g><path style="opacity:0.012" fill="#eff0ef" d="M 343.5,252.5 C 344.833,253.167 344.833,253.167 343.5,252.5 Z"/></g>
<g><path style="opacity:0.006" fill="#eeca95" d="M 378.5,249.5 C 379.404,250.209 379.737,251.209 379.5,252.5C 381.857,252.337 384.19,252.503 386.5,253C 383.854,253.497 381.187,253.664 378.5,253.5C 378.5,252.167 378.5,250.833 378.5,249.5 Z"/></g>
<g><path style="opacity:0.008" fill="#f0f1f0" d="M 345.5,253.5 C 346.833,254.167 346.833,254.167 345.5,253.5 Z"/></g>
<g><path style="opacity:0.016" fill="#efca95" d="M 405.5,253.5 C 406.573,254.251 406.74,255.251 406,256.5C 405.517,255.552 405.351,254.552 405.5,253.5 Z"/></g>
<g><path style="opacity:0.008" fill="#edca93" d="M 402.5,258.5 C 403.833,259.167 403.833,259.167 402.5,258.5 Z"/></g>
<g><path style="opacity:0.008" fill="#eeca95" d="M 47.5,259.5 C 47.1034,260.525 46.4368,260.692 45.5,260C 46.0944,259.536 46.7611,259.369 47.5,259.5 Z"/></g>
<g><path style="opacity:0.008" fill="#eeca95" d="M 400.5,260.5 C 400.5,260.167 400.5,259.833 400.5,259.5C 401.167,259.5 401.833,259.5 402.5,259.5C 402.158,260.338 401.492,260.672 400.5,260.5 Z"/></g>
<g><path style="opacity:0.004" fill="#eeca95" d="M 400.5,260.5 C 400.103,261.525 399.437,261.692 398.5,261C 399.094,260.536 399.761,260.369 400.5,260.5 Z"/></g>
<g><path style="opacity:0.006" fill="#eeca95" d="M 53.5,261.5 C 52.7494,262.573 51.7494,262.74 50.5,262C 51.448,261.517 52.448,261.351 53.5,261.5 Z"/></g>
<g><path style="opacity:0.012" fill="#eeca95" d="M 394.5,262.5 C 394.5,262.167 394.5,261.833 394.5,261.5C 398.5,261.833 398.5,262.167 394.5,262.5 Z"/></g>
<g><path style="opacity:0.008" fill="#eeca96" d="M 54.5,263.5 C 55.2506,262.427 56.2506,262.26 57.5,263C 56.552,263.483 55.552,263.649 54.5,263.5 Z"/></g>
<g><path style="opacity:0.008" fill="#ef5744" d="M 113.5,263.5 C 112.833,262.167 112.833,262.167 113.5,263.5 Z"/></g>
<g><path style="opacity:0.007" fill="#eeca95" d="M 390.5,262.5 C 391.833,262.5 393.167,262.5 394.5,262.5C 393.167,263.833 391.833,263.833 390.5,262.5 Z"/></g>
<g><path style="opacity:0.01" fill="#eeca95" d="M 58.5,264.5 C 59.6009,263.402 60.9343,263.235 62.5,264C 61.2068,264.49 59.8734,264.657 58.5,264.5 Z"/></g>
<g><path style="opacity:0.008" fill="#ef5744" d="M 113.5,263.5 C 114.833,264.167 114.833,264.167 113.5,263.5 Z"/></g>
<g><path style="opacity:0.009" fill="#eeca95" d="M 385.5,263.5 C 386.873,263.343 388.207,263.51 389.5,264C 387.934,264.765 386.601,264.598 385.5,263.5 Z"/></g>
<g><path style="opacity:0.01" fill="#eeca95" d="M 63.5,265.5 C 65.2884,264.378 67.2884,264.211 69.5,265C 67.5273,265.495 65.5273,265.662 63.5,265.5 Z"/></g>
<g><path style="opacity:0.008" fill="#eeca95" d="M 378.5,264.5 C 380.527,264.338 382.527,264.505 384.5,265C 382.288,265.789 380.288,265.622 378.5,264.5 Z"/></g>
<g><path style="opacity:0.01" fill="#eeca95" d="M 81.5,265.5 C 78.3601,266.641 75.0267,266.808 71.5,266C 74.8168,265.502 78.1501,265.335 81.5,265.5 Z"/></g>
<g><path style="opacity:0.008" fill="#eeca95" d="M 366.5,266.5 C 366.5,266.167 366.5,265.833 366.5,265.5C 381.167,265.833 381.167,266.167 366.5,266.5 Z"/></g>
<g><path style="opacity:0.012" fill="#eeca95" d="M 82.5,267.5 C 82.8966,266.475 83.5632,266.308 84.5,267C 83.9056,267.464 83.2389,267.631 82.5,267.5 Z"/></g>
<g><path style="opacity:0.012" fill="#ef5744" d="M 116.5,267.5 C 115.833,266.167 115.833,266.167 116.5,267.5 Z"/></g>
<g><path style="opacity:0.008" fill="#eeca95" d="M 363.5,267.5 C 363.5,267.167 363.5,266.833 363.5,266.5C 364.5,266.5 365.5,266.5 366.5,266.5C 365.791,267.404 364.791,267.737 363.5,267.5 Z"/></g>
<g><path style="opacity:0.008" fill="#efca95" d="M 87.5,267.5 C 87.5,267.833 87.5,268.167 87.5,268.5C 84.8333,268.167 84.8333,267.833 87.5,267.5 Z"/></g>
<g><path style="opacity:0.008" fill="#ef5744" d="M 116.5,267.5 C 117.833,268.167 117.833,268.167 116.5,267.5 Z"/></g>
<g><path style="opacity:0.008" fill="#efca96" d="M 361.5,267.5 C 362.167,267.5 362.833,267.5 363.5,267.5C 362.833,268.833 362.167,268.833 361.5,267.5 Z"/></g>
<g><path style="opacity:0.012" fill="#edca94" d="M 87.5,268.5 C 88.8333,269.167 88.8333,269.167 87.5,268.5 Z"/></g>
<g><path style="opacity:0.016" fill="#eecb95" d="M 359.5,268.5 C 360.833,269.167 360.833,269.167 359.5,268.5 Z"/></g>
<g><path style="opacity:0.012" fill="#eecb95" d="M 359.5,269.5 C 358.833,270.167 358.833,270.167 359.5,269.5 Z"/></g>
<g><path style="opacity:0.016" fill="#f05844" d="M 119.5,271.5 C 118.833,270.167 118.833,270.167 119.5,271.5 Z"/></g>
<g><path style="opacity:0.008" fill="#ef5744" d="M 119.5,271.5 C 120.833,272.167 120.833,272.167 119.5,271.5 Z"/></g>
<g><path style="opacity:1" fill="#f7efec" d="M 356.5,270.5 C 356.5,272.833 356.5,275.167 356.5,277.5C 354.596,277.262 353.262,276.262 352.5,274.5C 352.957,272.227 354.29,270.894 356.5,270.5 Z"/></g>
<g><path style="opacity:0.015" fill="#f2e6e3" d="M 358.5,270.5 C 358.664,273.187 358.497,275.854 358,278.5C 357.199,275.633 357.366,272.966 358.5,270.5 Z"/></g>
<g><path style="opacity:0.008" fill="#ef5744" d="M 139.5,276.5 C 140.833,277.167 140.833,277.167 139.5,276.5 Z"/></g>
<g><path style="opacity:0.008" fill="#f05745" d="M 90.5,278.5 C 91.5735,279.251 91.7401,280.251 91,281.5C 90.5172,280.552 90.3505,279.552 90.5,278.5 Z"/></g>
<g><path style="opacity:0.012" fill="#ef5744" d="M 126.5,280.5 C 125.833,279.167 125.833,279.167 126.5,280.5 Z"/></g>
<g><path style="opacity:0.008" fill="#ef5744" d="M 126.5,280.5 C 127.833,281.167 127.833,281.167 126.5,280.5 Z"/></g>
<g><path style="opacity:0.012" fill="#ef5744" d="M 136.5,281.5 C 137.833,282.167 137.833,282.167 136.5,281.5 Z"/></g>
<g><path style="opacity:0.012" fill="#f0efef" d="M 357.5,279.5 C 358.495,290.988 358.828,302.655 358.5,314.5C 367.506,314.334 376.506,314.5 385.5,315C 376.173,315.5 366.839,315.666 357.5,315.5C 357.5,303.5 357.5,291.5 357.5,279.5 Z"/></g>
<g><path style="opacity:0.012" fill="#ef5844" d="M 91.5,282.5 C 92.8333,283.167 92.8333,283.167 91.5,282.5 Z"/></g>
<g><path style="opacity:1" fill="#e5e2e1" d="M 300.5,335.5 C 299.507,327.016 299.174,318.349 299.5,309.5C 294.833,309.5 290.167,309.5 285.5,309.5C 285.5,337.5 285.5,365.5 285.5,393.5C 285.167,393.5 284.833,393.5 284.5,393.5C 284.5,365.5 284.5,337.5 284.5,309.5C 282.143,309.663 279.81,309.497 277.5,309C 275.963,307.293 274.296,305.793 272.5,304.5C 269.213,300.041 265.713,295.708 262,291.5C 259.618,288.781 256.951,286.447 254,284.5C 246.523,292.646 239.023,300.812 231.5,309C 224.842,309.5 218.175,309.666 211.5,309.5C 202.651,309.174 193.984,309.507 185.5,310.5C 185.5,338.167 185.5,365.833 185.5,393.5C 185.167,393.5 184.833,393.5 184.5,393.5C 184.5,365.5 184.5,337.5 184.5,309.5C 172.167,309.5 159.833,309.5 147.5,309.5C 147.821,314.695 147.487,319.695 146.5,324.5C 146.5,319.5 146.5,314.5 146.5,309.5C 139.492,309.666 132.492,309.5 125.5,309C 133.205,300.963 140.539,292.63 147.5,284C 198.5,283.333 249.5,283.333 300.5,284C 308.019,292.018 315.352,300.184 322.5,308.5C 315.197,309.497 307.863,309.831 300.5,309.5C 300.5,318.167 300.5,326.833 300.5,335.5 Z"/></g>
<g><path style="opacity:1" fill="#f1f1f0" d="M 272.5,304.5 C 272.5,334.167 272.5,363.833 272.5,393.5C 252.167,393.5 231.833,393.5 211.5,393.5C 211.5,365.5 211.5,337.5 211.5,309.5C 218.175,309.666 224.842,309.5 231.5,309C 239.023,300.812 246.523,292.646 254,284.5C 256.951,286.447 259.618,288.781 262,291.5C 265.713,295.708 269.213,300.041 272.5,304.5 Z"/></g>
<g><path style="opacity:0.004" fill="#f05745" d="M 93.5,284.5 C 93.631,285.239 93.4643,285.906 93,286.5C 92.3083,285.563 92.475,284.897 93.5,284.5 Z"/></g>
<g><path style="opacity:0.999" fill="#f1f0f0" d="M 356.5,280.5 C 356.5,292.5 356.5,304.5 356.5,316.5C 366.5,316.5 376.5,316.5 386.5,316.5C 386.5,342.167 386.5,367.833 386.5,393.5C 360.498,393.667 334.498,393.5 308.5,393C 323.224,387.606 329.724,377.106 328,361.5C 323.705,348.027 314.538,341.361 300.5,341.5C 300.5,358.833 300.5,376.167 300.5,393.5C 295.5,393.5 290.5,393.5 285.5,393.5C 285.5,365.5 285.5,337.5 285.5,309.5C 290.167,309.5 294.833,309.5 299.5,309.5C 299.174,318.349 299.507,327.016 300.5,335.5C 305.112,338.808 310.112,339.308 315.5,337C 320.367,332.468 324.867,327.634 329,322.5C 338.423,308.595 347.59,294.595 356.5,280.5 Z"/></g>
<g><path style="opacity:0.008" fill="#f05745" d="M 131.5,286.5 C 132.5,286.833 133.167,287.5 133.5,288.5C 132.833,288.5 132.167,288.5 131.5,288.5C 131.5,287.833 131.5,287.167 131.5,286.5 Z"/></g>
<g><path style="opacity:0.008" fill="#f05745" d="M 95.5,288.5 C 95.5,289.167 95.5,289.833 95.5,290.5C 94.1667,289.833 94.1667,289.167 95.5,288.5 Z"/></g>
<g><path style="opacity:0.016" fill="#f05745" d="M 313.5,291.5 C 312.833,291.5 312.5,291.833 312.5,292.5C 312.167,292.5 311.833,292.5 311.5,292.5C 311.711,290.576 312.377,290.243 313.5,291.5 Z"/></g>
<g><path style="opacity:0.012" fill="#f05745" d="M 95.5,290.5 C 95.8333,290.5 96.1667,290.5 96.5,290.5C 96.1667,293.167 95.8333,293.167 95.5,290.5 Z"/></g>
<g><path style="opacity:0.012" fill="#f05844" d="M 96.5,293.5 C 97.8333,294.167 97.8333,294.167 96.5,293.5 Z"/></g>
<g><path style="opacity:0.004" fill="#f05745" d="M 98.5,295.5 C 98.5,296.167 98.5,296.833 98.5,297.5C 97.1667,296.833 97.1667,296.167 98.5,295.5 Z"/></g>
<g><path style="opacity:0.004" fill="#f05744" d="M 98.5,297.5 C 98.8333,297.5 99.1667,297.5 99.5,297.5C 99.5,298.167 99.5,298.833 99.5,299.5C 98.6618,299.158 98.3284,298.492 98.5,297.5 Z"/></g>
<g><path style="opacity:0.004" fill="#f05745" d="M 99.5,299.5 C 99.8333,299.5 100.167,299.5 100.5,299.5C 100.5,300.167 100.5,300.833 100.5,301.5C 99.6618,301.158 99.3284,300.492 99.5,299.5 Z"/></g>
<g><path style="opacity:0.004" fill="#f05745" d="M 100.5,301.5 C 100.833,301.5 101.167,301.5 101.5,301.5C 101.5,302.167 101.5,302.833 101.5,303.5C 100.662,303.158 100.328,302.492 100.5,301.5 Z"/></g>
<g><path style="opacity:0.004" fill="#f05745" d="M 101.5,303.5 C 101.833,303.5 102.167,303.5 102.5,303.5C 102.5,304.167 102.5,304.833 102.5,305.5C 101.662,305.158 101.328,304.492 101.5,303.5 Z"/></g>
<g><path style="opacity:0.004" fill="#f15745" d="M 102.5,305.5 C 102.833,305.5 103.167,305.5 103.5,305.5C 103.5,306.167 103.5,306.833 103.5,307.5C 102.662,307.158 102.328,306.492 102.5,305.5 Z"/></g>
<g><path style="opacity:0.012" fill="#ef5744" d="M 103.5,307.5 C 103.833,307.5 104.167,307.5 104.5,307.5C 104.315,308.17 103.981,308.17 103.5,307.5 Z"/></g>
<g><path style="opacity:1" fill="#f15a48" d="M 272.5,304.5 C 274.296,305.793 275.963,307.293 277.5,309C 279.81,309.497 282.143,309.663 284.5,309.5C 284.5,337.5 284.5,365.5 284.5,393.5C 280.5,393.5 276.5,393.5 272.5,393.5C 272.5,363.833 272.5,334.167 272.5,304.5 Z"/></g>
<g><path style="opacity:0.012" fill="#ef5744" d="M 105.5,309.5 C 104.833,310.167 104.833,310.167 105.5,309.5 Z"/></g>
<g><path style="opacity:1" fill="#f0f0f0" d="M 184.5,393.5 C 171.92,393.822 159.42,393.489 147,392.5C 146.5,375.503 146.333,358.503 146.5,341.5C 146.5,336.5 146.5,331.5 146.5,326.5C 146.5,325.833 146.5,325.167 146.5,324.5C 147.487,319.695 147.821,314.695 147.5,309.5C 159.833,309.5 172.167,309.5 184.5,309.5C 184.5,337.5 184.5,365.5 184.5,393.5 Z"/></g>
<g><path style="opacity:0.012" fill="#ef5744" d="M 105.5,311.5 C 106.833,312.167 106.833,312.167 105.5,311.5 Z"/></g>
<g><path style="opacity:1" fill="#f15745" d="M 185.5,310.5 C 193.833,310.5 202.167,310.5 210.5,310.5C 210.5,338.167 210.5,365.833 210.5,393.5C 202.167,393.5 193.833,393.5 185.5,393.5C 185.5,365.833 185.5,338.167 185.5,310.5 Z"/></g>
<g><path style="opacity:1" fill="#f07161" d="M 185.5,310.5 C 193.984,309.507 202.651,309.174 211.5,309.5C 211.5,337.5 211.5,365.5 211.5,393.5C 211.167,393.5 210.833,393.5 210.5,393.5C 210.5,365.833 210.5,338.167 210.5,310.5C 202.167,310.5 193.833,310.5 185.5,310.5 Z"/></g>
<g><path style="opacity:0.004" fill="#f05745" d="M 108.5,314.5 C 108.5,315.167 108.5,315.833 108.5,316.5C 107.167,315.833 107.167,315.167 108.5,314.5 Z"/></g>
<g><path style="opacity:0.012" fill="#ef5744" d="M 108.5,316.5 C 108.833,316.5 109.167,316.5 109.5,316.5C 109.315,317.17 108.981,317.17 108.5,316.5 Z"/></g>
<g><path style="opacity:0.012" fill="#ef5844" d="M 112.5,321.5 C 111.833,322.167 111.833,322.167 112.5,321.5 Z"/></g>
<g><path style="opacity:0.012" fill="#f05745" d="M 116.5,327.5 C 115.833,328.167 115.833,328.167 116.5,327.5 Z"/></g>
<g><path style="opacity:0.008" fill="#f05844" d="M 116.5,329.5 C 117.833,330.167 117.833,330.167 116.5,329.5 Z"/></g>
<g><path style="opacity:0.008" fill="#f2e5e3" d="M 144.5,328.5 C 145.482,331.962 145.815,335.629 145.5,339.5C 145.167,339.5 144.833,339.5 144.5,339.5C 144.81,336.287 144.477,333.287 143.5,330.5C 143.5,330.167 143.5,329.833 143.5,329.5C 144.167,329.5 144.5,329.167 144.5,328.5 Z"/></g>
<g><path style="opacity:0.012" fill="#ef5744" d="M 124.5,336.5 C 124.5,336.833 124.5,337.167 124.5,337.5C 123.83,337.019 123.83,336.685 124.5,336.5 Z"/></g>
<g><path style="opacity:0.008" fill="#f05744" d="M 124.5,337.5 C 125.833,338.167 125.833,338.167 124.5,337.5 Z"/></g>
<g><path style="opacity:0.012" fill="#8a7773" d="M 144.5,339.5 C 144.833,339.5 145.167,339.5 145.5,339.5C 92.0827,340.189 91.7493,340.189 144.5,339.5 Z"/></g>
<g><path style="opacity:0.004" fill="#eff0ef" d="M 102.5,343.5 C 101.833,342.167 101.833,342.167 102.5,343.5 Z"/></g>
<g><path style="opacity:0.999" fill="#efefef" d="M 125.5,341.5 C 125.217,342.289 124.717,342.956 124,343.5C 123.5,360.163 123.333,376.83 123.5,393.5C 116.5,393.5 109.5,393.5 102.5,393.5C 102.5,376.833 102.5,360.167 102.5,343.5C 103.289,343.217 103.956,342.717 104.5,342C 111.492,341.5 118.492,341.334 125.5,341.5 Z"/></g>
<g><path style="opacity:0.999" fill="#413f3f" d="M 125.5,341.5 C 132.5,341.5 139.5,341.5 146.5,341.5C 146.333,358.503 146.5,375.503 147,392.5C 159.42,393.489 171.92,393.822 184.5,393.5C 184.833,393.5 185.167,393.5 185.5,393.5C 193.833,393.5 202.167,393.5 210.5,393.5C 210.833,393.5 211.167,393.5 211.5,393.5C 231.833,393.5 252.167,393.5 272.5,393.5C 276.5,393.5 280.5,393.5 284.5,393.5C 284.833,393.5 285.167,393.5 285.5,393.5C 290.5,393.5 295.5,393.5 300.5,393.5C 300.5,376.167 300.5,358.833 300.5,341.5C 314.538,341.361 323.705,348.027 328,361.5C 329.724,377.106 323.224,387.606 308.5,393C 334.498,393.5 360.498,393.667 386.5,393.5C 407.5,393.5 428.5,393.5 449.5,393.5C 449.5,394.5 449.5,395.5 449.5,396.5C 299.5,396.5 149.5,396.5 -0.5,396.5C -0.5,395.5 -0.5,394.5 -0.5,393.5C 33.8333,393.5 68.1667,393.5 102.5,393.5C 109.5,393.5 116.5,393.5 123.5,393.5C 123.333,376.83 123.5,360.163 124,343.5C 124.717,342.956 125.217,342.289 125.5,341.5 Z"/></g>
<g><path style="opacity:0.012" fill="#656464" d="M 101.5,343.5 C 101.5,359.833 101.5,376.167 101.5,392.5C 67.5,392.5 33.5,392.5 -0.5,392.5C -0.5,392.167 -0.5,391.833 -0.5,391.5C 33.1667,391.5 66.8333,391.5 100.5,391.5C 100.17,375.325 100.504,359.325 101.5,343.5 Z"/></g>
<g><path style="opacity:0.012" fill="#787777" d="M 449.5,391.5 C 449.5,391.833 449.5,392.167 449.5,392.5C 428.833,392.5 408.167,392.5 387.5,392.5C 387.333,367.498 387.5,342.498 388,317.5C 388.5,342.164 388.667,366.831 388.5,391.5C 408.833,391.5 429.167,391.5 449.5,391.5 Z"/></g>
<g><path style="opacity:0.008" fill="#3d3c3c" d="M -0.5,398.5 C -0.5,398.167 -0.5,397.833 -0.5,397.5C 149.5,397.5 299.5,397.5 449.5,397.5C 449.5,397.833 449.5,398.167 449.5,398.5C 299.5,398.5 149.5,398.5 -0.5,398.5 Z"/></g>
</svg>
